<?xml version="1.0" encoding="utf-8"?>
<!-- Generator: Adobe Illustrator 27.5.0, SVG Export Plug-In . SVG Version: 6.00 Build 0)  -->
<svg version="1.1" id="Layer_1" xmlns="http://www.w3.org/2000/svg" xmlns:xlink="http://www.w3.org/1999/xlink" x="0px" y="0px"
	 viewBox="0 0 250.795 342.473" style="enable-background:new 0 0 250.795 342.473;" xml:space="preserve">
<g>
	<g>
		<path style="fill:#28588F;" d="M147.596,249.992c-11.433-9.651-26.266-10.953-31.948-11.077
			c3.898,6.308,10.187,24.218-9.353,60.276c0,0,30.75,8.75,50-3s16.072-40.261,16.072-40.261S162.221,257.305,147.596,249.992z"/>
		<path style="fill:#5A2800;" d="M130.268,302.823c-12.886,0-23.999-3.119-24.109-3.151c-0.146-0.041-0.266-0.147-0.324-0.286
			c-0.059-0.141-0.051-0.299,0.021-0.433c19.526-36.035,13.056-53.808,9.366-59.775c-0.096-0.155-0.1-0.352-0.008-0.511
			c0.091-0.16,0.278-0.243,0.444-0.252c5.856,0.128,20.707,1.472,32.214,11.156c10.395,5.187,18.456,5.962,22.34,5.962
			c1.34,0,2.081-0.097,2.089-0.098c0.126-0.018,0.268,0.019,0.374,0.102c0.106,0.082,0.175,0.204,0.189,0.338
			c0.032,0.288,2.989,28.964-16.309,40.743C149.809,300.735,140.965,302.823,130.268,302.823z M107.035,298.871
			c2.471,0.639,12.192,2.952,23.232,2.952c10.511,0,19.181-2.038,25.767-6.059c17.381-10.608,16.174-35.483,15.879-39.288
			c-0.375,0.027-0.947,0.057-1.701,0.057c-3.979,0-12.235-0.792-22.84-6.094c-0.035-0.018-0.068-0.04-0.099-0.065
			c-10.72-9.05-24.461-10.685-30.731-10.932C126.861,257.59,113.642,286.55,107.035,298.871z"/>
	</g>
	<path style="fill:#AE64A5;" d="M165.667,262.636c2.263,0.44,4.54,0.678,6.823,0.806c0.21-4.48-0.123-7.511-0.123-7.511
		s-9.557,1.293-23.487-5.314C152.833,256.604,158.258,261.193,165.667,262.636z"/>
	<g>
		<path style="fill:#033668;" d="M62.379,242.801c-0.111,0.047-0.223,0.094-0.334,0.141c5.75,35.25,24.435,53.475,24.435,53.475
			C80.523,259.426,67.998,246.742,62.379,242.801z"/>
		<path style="fill:#5A2800;" d="M86.48,296.916c-0.127,0-0.254-0.049-0.349-0.142c-0.189-0.184-18.87-18.745-24.58-53.753
			c-0.037-0.228,0.086-0.451,0.299-0.541l0.334-0.141c0.16-0.067,0.342-0.048,0.481,0.052
			c15.894,11.148,22.294,41.439,24.308,53.945c0.035,0.213-0.071,0.424-0.263,0.522C86.638,296.897,86.559,296.916,86.48,296.916z
			 M62.666,243.627c4.962,29.239,18.992,46.699,23.052,51.241C79.846,260.242,68.084,247.694,62.666,243.627z"/>
	</g>
	<g>
		<path style="fill:#033668;" d="M113.545,236.191c-14.25,22.75-9.741,55.705-9.741,55.705c0.753,5.022,2.491,7.295,2.491,7.295
			C131.628,252.441,113.545,236.191,113.545,236.191z"/>
		<path style="fill:#5A2800;" d="M106.295,299.691c-0.155,0-0.302-0.072-0.397-0.196c-0.074-0.097-1.825-2.435-2.588-7.525
			c-0.047-0.338-4.37-33.403,9.812-56.045c0.078-0.125,0.208-0.209,0.354-0.229c0.148-0.018,0.295,0.024,0.403,0.123
			c0.751,0.675,18.086,17.049-7.145,63.61c-0.081,0.149-0.231,0.247-0.4,0.26C106.321,299.69,106.308,299.691,106.295,299.691z
			 M113.63,237.005c-13.582,22.32-9.375,54.499-9.331,54.824c0.492,3.281,1.422,5.365,1.967,6.362
			c12.602-23.532,13.858-38.996,12.674-47.855C117.886,242.458,114.767,238.293,113.63,237.005z"/>
	</g>
	<g>
		<g>
			<path style="fill:#28588F;" d="M95.795,229.941c0,0-15.8,5.432-33.416,12.859c5.619,3.941,18.144,16.625,24.101,53.615
				l17.323-4.52c0,0-4.196-30.705,8.329-53.299c-5.935-4.433-11.869-7.692-16.493-9.9C95.736,229.503,95.795,229.941,95.795,229.941
				z"/>
			<path style="fill:#5A2800;" d="M86.48,296.916c-0.096,0-0.191-0.027-0.273-0.081c-0.118-0.077-0.198-0.2-0.22-0.34
				c-5.985-37.163-18.705-49.645-23.895-53.285c-0.149-0.104-0.23-0.281-0.21-0.462c0.019-0.182,0.135-0.337,0.303-0.408
				c15.921-6.713,30.53-11.855,33.063-12.737c-0.026-0.207-0.062-0.491-0.104-0.846c-0.022-0.181,0.057-0.359,0.205-0.466
				c0.146-0.108,0.342-0.125,0.507-0.045c5.986,2.858,11.563,6.206,16.576,9.951c0.201,0.149,0.26,0.424,0.139,0.643
				c-12.303,22.191-8.312,52.684-8.271,52.989c0.034,0.25-0.124,0.487-0.369,0.551l-17.323,4.52
				C86.565,296.911,86.522,296.916,86.48,296.916z M63.391,242.918c15.145,11.38,21.419,40.257,23.495,52.876l16.369-4.271
				c-0.442-3.839-3.173-31.815,8.229-52.784c-4.639-3.43-9.758-6.519-15.236-9.193c0.027,0.216,0.042,0.328,0.042,0.329
				c0.032,0.236-0.107,0.462-0.333,0.539C95.802,230.468,80.464,235.756,63.391,242.918z"/>
		</g>
		<g>
			<path style="fill:#A6CE39;" d="M153.962,154.275c-22.583,5.833-30.917,1.416-48.417-7.084
				c-17.247,14.027-11.016,72.258-9.905,81.505c4.624,2.208,10.559,5.468,16.493,9.9c0.451-0.813,0.918-1.617,1.412-2.406
				c0,0,0.946,0.854,2.103,2.724c5.683,0.124,20.516,1.426,31.948,11.077c14.625,7.313,24.771,5.939,24.771,5.939l3.428-0.489
				C181.795,180.941,153.962,154.275,153.962,154.275z"/>
			<path style="fill:#5A2800;" d="M170.212,256.533L170.212,256.533c-3.979,0-12.236-0.792-22.84-6.094
				c-0.035-0.018-0.068-0.04-0.099-0.065c-11.271-9.514-25.879-10.833-31.637-10.959c-0.17-0.004-0.325-0.093-0.414-0.237
				c-0.644-1.04-1.222-1.757-1.591-2.174c-0.341,0.563-0.69,1.168-1.062,1.837c-0.07,0.126-0.191,0.216-0.333,0.246
				c-0.138,0.028-0.288-0.002-0.403-0.089c-4.961-3.705-10.482-7.02-16.41-9.85c-0.154-0.074-0.26-0.222-0.28-0.392
				c-0.57-4.746-2.394-21.586-1.936-39.033c0.591-22.472,4.636-36.913,12.021-42.919c0.15-0.124,0.36-0.147,0.534-0.062l1.11,0.54
				c11.331,5.509,18.816,9.148,29.292,9.147c5.089-0.001,10.704-0.839,17.671-2.638c0.163-0.044,0.346,0.003,0.471,0.123
				c0.28,0.268,27.936,27.685,21.985,101.567c-0.018,0.233-0.196,0.422-0.428,0.455l-3.428,0.489
				C172.402,256.431,171.628,256.533,170.212,256.533z M147.872,249.571c10.395,5.187,18.456,5.962,22.34,5.962l0,0
				c1.341,0,2.081-0.097,2.089-0.098l3.027-0.433c5.524-69.864-19.084-97.615-21.521-100.171
				c-6.922,1.772-12.533,2.598-17.641,2.598h-0.002c-10.705,0-18.272-3.679-29.727-9.248l-0.821-0.399
				c-16.714,14.206-10.453,72.616-9.513,80.582c5.711,2.745,11.047,5.937,15.871,9.492c0.398-0.704,0.776-1.34,1.146-1.932
				c0.078-0.125,0.208-0.209,0.354-0.229c0.148-0.018,0.294,0.024,0.404,0.124c0.039,0.035,0.935,0.852,2.049,2.602
				C121.96,238.585,136.538,240.032,147.872,249.571z"/>
		</g>
	</g>
	<g>
		<path style="fill:#FFC390;" d="M86.578,298.229l-19.73-10.367c0,0-9.195-4.514,13.043-17.389c0,0-5.428-18.561-17.512-27.673
			c0,0-34.321,5.437-36.829,30.016c-1.337,17.222,20.23,37.118,56.347,40.964C81.896,313.78,81.131,305.904,86.578,298.229z"/>
		<path style="fill:#5A2800;" d="M81.896,314.28c-0.018,0-0.035-0.001-0.053-0.003c-37.258-3.967-58.134-24.216-56.792-41.5
			c2.519-24.689,36.902-30.415,37.249-30.471c0.135-0.019,0.27,0.014,0.379,0.095c12.077,9.107,17.636,27.745,17.69,27.932
			c0.065,0.222-0.029,0.458-0.229,0.573c-12.281,7.11-14.76,11.504-14.676,13.938c0.061,1.792,1.587,2.561,1.602,2.568
			l19.742,10.374c0.128,0.066,0.221,0.185,0.254,0.326c0.033,0.14,0.005,0.288-0.078,0.405c-5.278,7.437-4.6,15.137-4.592,15.213
			c0.014,0.15-0.039,0.298-0.146,0.404C82.154,314.229,82.027,314.28,81.896,314.28z M62.25,243.33
			c-2.854,0.513-33.864,6.614-36.203,29.537c-1.627,20.961,27.337,37.191,55.317,40.352c-0.064-1.976,0.114-8.368,4.48-14.81
			l-19.229-10.104c-0.073-0.035-2.067-1.041-2.149-3.426c-0.133-3.894,4.856-8.817,14.829-14.638
			C78.453,267.596,73.008,251.569,62.25,243.33z"/>
	</g>
	<path style="fill:#FFC390;" d="M73.584,274.47c1.756-1.233,3.825-2.56,6.307-3.996c0,0-5.428-18.561-17.512-27.673
		c0,0-3.623,0.579-8.592,2.192C63.363,252.088,69.564,262.991,73.584,274.47z"/>
	<g>
		<path style="fill:#FBADCA;" d="M86.578,298.229l-16.099-8.459c-3.917,5.945-6.776,12.948-7.884,20.093
			c5.849,1.816,12.297,3.171,19.301,3.917C81.896,313.78,81.131,305.904,86.578,298.229z"/>
		<path style="fill:#5A2800;" d="M81.896,314.28c-0.018,0-0.035-0.001-0.053-0.003c-6.788-0.723-13.313-2.048-19.397-3.937
			c-0.236-0.073-0.384-0.31-0.346-0.554c1.089-7.022,3.841-14.039,7.96-20.292c0.142-0.215,0.423-0.287,0.65-0.167l16.099,8.459
			c0.128,0.066,0.221,0.185,0.254,0.326c0.033,0.14,0.005,0.288-0.078,0.405c-5.268,7.422-4.6,15.137-4.592,15.214
			c0.014,0.149-0.04,0.298-0.146,0.403C82.154,314.229,82.027,314.28,81.896,314.28z M63.158,309.514
			c5.727,1.748,11.847,2.994,18.206,3.705c-0.064-1.976,0.114-8.368,4.48-14.81l-15.195-7.984
			C66.828,296.334,64.245,302.916,63.158,309.514z"/>
	</g>
	<g>
		<g>
			<path style="fill:#FBADCA;" d="M56.754,273.131c-8.373,7.599-13.953,13.444-13.953,13.444s7.314,10.141,9.209,14.985
				c3.168-2.069,9.584-5.946,16.799-10.053C66.805,280.851,59.729,275.115,56.754,273.131z"/>
			<path style="fill:#5A2800;" d="M52.01,302.061c-0.051,0-0.102-0.008-0.152-0.023c-0.144-0.046-0.259-0.154-0.313-0.295
				c-1.85-4.73-9.076-14.773-9.148-14.874c-0.142-0.196-0.123-0.464,0.044-0.639c0.056-0.059,5.688-5.945,13.978-13.469
				c0.171-0.154,0.424-0.174,0.613-0.046c3.009,2.008,10.229,7.848,12.269,18.7c0.04,0.21-0.059,0.422-0.244,0.527
				c-7.556,4.301-13.868,8.14-16.772,10.037C52.201,302.033,52.105,302.061,52.01,302.061z M43.45,286.622
				c1.254,1.759,6.817,9.662,8.791,14.192c3.059-1.969,8.981-5.558,16.008-9.563c-1.984-9.89-8.419-15.388-11.45-17.485
				C49.743,280.184,44.678,285.354,43.45,286.622z"/>
		</g>
		<g>
			<path style="fill:#FFC390;" d="M115.647,238.915c-16.97-1-42.978,19.773-58.893,34.216c2.975,1.984,10.051,7.72,12.055,18.377
				c12.93-7.358,28.438-15.457,32.493-15.225c6.319,0.361,13.542,4.514,13.542,4.514
				C120.393,265.152,122.045,250.191,115.647,238.915z"/>
			<path style="fill:#5A2800;" d="M68.809,292.008c-0.071,0-0.144-0.016-0.21-0.046c-0.146-0.068-0.252-0.203-0.281-0.361
				c-1.971-10.479-8.937-16.116-11.841-18.054c-0.128-0.086-0.21-0.226-0.222-0.379c-0.011-0.153,0.049-0.304,0.163-0.407
				c31.315-28.416,48.841-34.381,58.028-34.381c0.414,0,0.826,0.012,1.23,0.036c0.169,0.01,0.322,0.105,0.405,0.252
				c5.813,10.244,5.554,24.475-0.767,42.296c-0.05,0.14-0.159,0.251-0.298,0.302c-0.141,0.051-0.296,0.039-0.423-0.035
				c-0.071-0.041-7.196-4.098-13.321-4.448l-0.149-0.004c-3.396,0-15.384,5.669-32.068,15.164
				C68.979,291.986,68.895,292.008,68.809,292.008z M57.559,273.077c3.179,2.244,9.519,7.819,11.604,17.654
				c8.401-4.765,26.951-14.953,31.961-14.953c0.071,0,0.14,0.002,0.206,0.006c5.453,0.312,11.445,3.324,13.238,4.289
				c5.981-17.136,6.242-30.816,0.778-40.673c-0.298-0.014-0.599-0.021-0.9-0.021C97.448,239.38,71.708,260.289,57.559,273.077z"/>
		</g>
		<path style="fill:#FFC390;" d="M115.647,238.915c-2.17-0.128-4.489,0.104-6.915,0.63c6.044,11.863,4.309,25.724-0.102,38.425
			c3.525,1.286,6.213,2.827,6.213,2.827C120.393,265.152,122.045,250.191,115.647,238.915z"/>
	</g>
	<g>
		<path style="fill:#D75E36;" d="M101.188,220.131c0,0,13.564,7.683,21.486-3.841c0.6,3.121-0.36,4.321-0.36,4.321
			s3.36-3.601,3.961-6.482c1.2,2.16,0.12,6.241,0.12,6.241s4.201-4.441,5.401-8.643c1.2-4.201,6.721,4.082,3.12,13.564
			s-12.723,15.123-27.607,11.643C92.426,233.455,100.947,221.45,101.188,220.131z"/>
		<path style="fill:#5A2800;" d="M115.651,238.472c-2.634,0-5.478-0.352-8.457-1.049c-4.346-1.017-7.181-2.867-8.425-5.499
			c-1.907-4.032,0.39-8.693,1.493-10.934c0.191-0.389,0.408-0.829,0.433-0.95c0.032-0.156,0.139-0.293,0.284-0.359
			c0.145-0.066,0.315-0.064,0.454,0.015c0.043,0.024,4.385,2.444,9.458,2.444c4.747,0,8.572-2.063,11.37-6.133
			c0.115-0.167,0.319-0.246,0.515-0.206c0.197,0.041,0.351,0.197,0.389,0.395c0.181,0.943,0.228,1.725,0.2,2.362
			c0.959-1.264,2.104-3.02,2.42-4.529c0.042-0.205,0.208-0.361,0.414-0.393c0.212-0.033,0.41,0.068,0.513,0.251
			c0.749,1.349,0.695,3.316,0.513,4.756c1.312-1.616,3.334-4.404,4.091-7.052c0.368-1.291,1.095-1.483,1.494-1.483
			c0.64,0,1.301,0.468,1.912,1.354c1.551,2.248,3.007,7.834,0.662,14.01C132.2,233.854,125.192,238.472,115.651,238.472z
			 M101.45,220.832c-0.076,0.164-0.172,0.359-0.291,0.601c-1.034,2.099-3.187,6.468-1.485,10.064
			c1.107,2.342,3.714,4.008,7.749,4.951c2.902,0.68,5.671,1.023,8.228,1.023c9.096,0,15.772-4.388,18.797-12.356
			c2.209-5.815,0.881-11.013-0.55-13.087c-0.47-0.68-0.88-0.921-1.089-0.921c-0.198,0-0.397,0.283-0.533,0.759
			c-1.22,4.27-5.344,8.663-5.518,8.849c-0.157,0.167-0.407,0.205-0.607,0.093c-0.199-0.11-0.299-0.344-0.24-0.564
			c0.008-0.031,0.651-2.514,0.353-4.509c-1.128,2.567-3.467,5.092-3.585,5.218c-0.182,0.197-0.488,0.213-0.692,0.037
			c-0.203-0.176-0.231-0.48-0.063-0.69c0.003-0.003,0.568-0.794,0.423-2.721c-2.918,3.691-6.766,5.561-11.454,5.561
			C106.527,223.14,102.779,221.493,101.45,220.832z"/>
	</g>
	<g>
		<path style="fill:#D75E36;" d="M37.584,169.142c0,0-18.082,21.654-3.125,54.47c-4.465,5.135-4.018,10.938,0,12.947
			c-2.009,10.716,5.358,16.072,15.85,19.868c-8.706,6.251-6.474,10.939-4.241,11.386c0.446,4.911,2.455,5.134,4.018,4.241
			c4.019,2.902,13.618-6.473,15.851-14.063c2.232-7.591-0.128-10.199-2.61-11.788c-2.483-1.589-0.497-4.769,1.589-7.45
			c7.648,3.477,15.88,0.189,18.714-1.978c-0.168,11.166,3.999,16.166,14.332,16.166c-3.832,10-0.332,14.501,3.334,12.667
			c2.5,2.666,4.666,1.166,5,0.166c2.5,2.167,8-4.666,8.834-18.166c0.832-13.5-3.667-13.835-8-13.001
			c-4.334,0.834-5.5-2.666-4.5-9.666c1-7,7.666-38.5-17.084-68.75C65.545,165.942,37.584,169.142,37.584,169.142z"/>
		<path style="fill:#5A2800;" d="M51.869,273.096c-0.677,0-1.284-0.155-1.81-0.463c-0.456,0.22-0.903,0.331-1.333,0.331l0,0
			c-1.194,0-2.688-0.838-3.122-4.763c-0.957-0.346-1.706-1.26-1.958-2.425c-0.279-1.295-0.256-4.715,5.621-9.199
			c-8.394-3.152-17.307-8.303-15.364-19.749c-1.562-0.899-2.616-2.395-2.983-4.246c-0.565-2.851,0.511-6.135,2.952-9.053
			c-7.642-16.957-6.368-30.88-3.941-39.593c2.649-9.509,7.082-14.891,7.27-15.115c0.082-0.099,0.199-0.162,0.327-0.176
			c0.278-0.032,28.107-3.304,47.799-12.903c0.208-0.102,0.459-0.047,0.605,0.133c15.614,19.083,21.469,41.884,17.401,67.771
			c-0.083,0.526-0.154,0.982-0.209,1.365c-0.611,4.28-0.363,7.094,0.738,8.363c0.679,0.783,1.72,1.021,3.172,0.741
			c0.979-0.189,1.762-0.275,2.465-0.275c1.665,0,2.949,0.505,3.926,1.544c1.868,1.987,2.589,5.995,2.203,12.254
			c-0.767,12.418-5.311,19.031-8.295,19.031c-0.301,0-0.59-0.063-0.857-0.188c-0.453,0.609-1.294,1.126-2.332,1.126
			c-0.707,0-1.775-0.251-2.96-1.4c-1.636,0.667-3.287,0.178-4.285-1.272c-1.59-2.313-1.459-6.48,0.347-11.502
			c-4.675-0.108-8.066-1.294-10.354-3.616c-2.484-2.521-3.72-6.481-3.766-12.087c-2.46,1.553-6.645,3.041-11.003,3.041
			c-2.498,0-4.868-0.472-7.051-1.403c-1.207,1.582-2.623,3.706-2.372,5.163c0.088,0.513,0.381,0.922,0.896,1.251
			c2.686,1.719,5.12,4.53,2.82,12.35C64.36,265.124,56.61,273.096,51.869,273.096z M50.086,271.555c0.104,0,0.206,0.032,0.293,0.095
			c0.409,0.296,0.911,0.446,1.49,0.446c4.304,0,11.669-7.722,13.588-14.245c2.107-7.167,0.092-9.631-2.4-11.226
			c-0.754-0.482-1.206-1.13-1.342-1.924c-0.329-1.91,1.233-4.233,2.806-6.254c0.142-0.184,0.394-0.243,0.602-0.148
			c2.151,0.978,4.507,1.474,7.001,1.474c5.351,0,9.667-2.22,11.202-3.393c0.152-0.116,0.358-0.135,0.528-0.049
			c0.172,0.086,0.278,0.263,0.275,0.454c-0.088,5.836,1.049,9.87,3.475,12.333c2.205,2.237,5.593,3.325,10.357,3.325
			c0.165,0,0.318,0.081,0.412,0.217c0.093,0.136,0.113,0.309,0.055,0.462c-1.892,4.936-2.155,9.141-0.705,11.249
			c0.794,1.155,2.044,1.447,3.349,0.792c0.197-0.098,0.437-0.057,0.588,0.105c0.824,0.878,1.683,1.342,2.484,1.342
			c0.951,0,1.562-0.646,1.677-0.992c0.054-0.158,0.182-0.28,0.343-0.324c0.159-0.043,0.334-0.005,0.459,0.104
			c0.213,0.184,0.445,0.273,0.711,0.273c2.218,0,6.553-6.046,7.297-18.093c0.362-5.886-0.288-9.757-1.934-11.508
			c-0.788-0.838-1.805-1.229-3.197-1.229c-0.639,0-1.361,0.082-2.275,0.258c-1.822,0.349-3.201-0.014-4.116-1.068
			c-1.337-1.541-1.646-4.451-0.974-9.159c0.056-0.388,0.128-0.849,0.211-1.38c1.494-9.505,6.027-38.362-16.938-66.677
			c-18.918,9.105-44.973,12.482-47.56,12.799c-1.538,1.984-16.934,23.075-2.934,53.792c0.081,0.178,0.051,0.388-0.078,0.535
			c-2.385,2.743-3.455,5.822-2.935,8.447c0.331,1.67,1.318,2.993,2.781,3.725c0.199,0.1,0.309,0.32,0.268,0.539
			c-1.684,8.985,2.96,14.759,15.529,19.307c0.175,0.063,0.3,0.217,0.325,0.401c0.025,0.184-0.053,0.366-0.203,0.475
			c-6.145,4.411-6.226,7.576-5.978,8.732c0.227,1.047,0.938,1.637,1.542,1.758c0.218,0.043,0.38,0.225,0.4,0.445
			c0.143,1.566,0.612,4.195,2.16,4.195l0,0c0.334,0,0.719-0.119,1.111-0.344C49.915,271.576,50.001,271.555,50.086,271.555z"/>
	</g>
	<path style="opacity:0.5;fill:#C27D55;" d="M71.635,171.152c6.111-2.665,12.159-5.967,17.728-9.922
		c-1.185-1.68-2.445-3.361-3.817-5.038c-20,9.75-47.961,12.95-47.961,12.95s-1.922,2.314-3.994,6.553
		C46.037,179.305,59.986,176.232,71.635,171.152z"/>
	<g>
		<path style="fill:#541700;" d="M52.832,106.334c0,0-4.381-9.346-14.164-1.898c-9.783,7.447-28.182,32.125-32.709,39.718
			c-4.527,7.593,4.088,18.983,16.646,8.616C35.164,142.401,52.832,106.334,52.832,106.334z"/>
		<path style="fill:#5A2800;" d="M13.001,157.423L13.001,157.423c-3.248,0-6.011-1.583-7.578-4.343
			c-1.615-2.844-1.574-6.363,0.106-9.183c4.841-8.119,23.241-32.557,32.836-39.86c2.6-1.979,5.08-2.982,7.373-2.982
			c5.111,0,7.449,4.86,7.547,5.066c0.063,0.137,0.063,0.296-0.004,0.432c-0.724,1.477-17.859,36.284-30.357,46.602
			C19.541,155.947,16.109,157.423,13.001,157.423z M45.738,102.055c-2.068,0-4.346,0.935-6.768,2.778
			c-9.505,7.236-27.771,31.508-32.582,39.576c-1.498,2.512-1.534,5.645-0.097,8.177c1.386,2.438,3.83,3.837,6.709,3.837
			c2.874,0,6.085-1.397,9.286-4.04c11.816-9.754,28.458-42.967,29.984-46.043C51.783,105.458,49.647,102.055,45.738,102.055z"/>
	</g>
	<g>
		<path style="fill:#541700;" d="M91.041,137.394c0,0-4.863,29.834,1.988,34.697c6.852,4.861,22.982,1.547,20.11-15.028
			C110.268,140.488,94.355,122.808,91.041,137.394z"/>
		<path style="fill:#5A2800;" d="M100.17,174.641c0,0-0.001,0-0.002,0c-2.843,0-5.481-0.762-7.428-2.143
			c-7.025-4.985-2.394-33.954-2.192-35.185c1.097-4.832,3.441-5.839,5.216-5.839c6.41,0,15.763,13.348,17.868,25.503
			c0.918,5.293-0.016,9.775-2.699,12.963C108.419,172.928,104.496,174.641,100.17,174.641z M95.764,132.474
			c-2.052,0-3.477,1.692-4.235,5.031c-0.006,0.044-1.21,7.499-1.563,15.444c-0.461,10.371,0.698,16.849,3.353,18.733
			c1.779,1.263,4.212,1.958,6.851,1.958h0.001c4.03,0,7.674-1.583,9.998-4.344c2.487-2.955,3.344-7.156,2.479-12.148
			C110.819,146.603,102.138,132.474,95.764,132.474z"/>
	</g>
	<g>
		<g>
			<path style="fill:#D75E36;" d="M83.525,107.56c0,0-12.154-13.26-28.729-4.42c-16.574,8.84-19.89,30.718-19.89,30.718
				s12.597-4.862,23.646,7.072c10.606,11.455,7.763,28.805-13.002,31.157c12.013,0.042,27.445-4.107,45.488-16.35
				C102.09,146.897,91.702,117.947,83.525,107.56z"/>
			<path style="fill:#5A2800;" d="M45.729,172.588C45.728,172.588,45.729,172.588,45.729,172.588l-0.179-0.001
				c-0.265,0-0.482-0.208-0.497-0.472c-0.015-0.265,0.18-0.495,0.442-0.524c9.067-1.027,15.338-5.034,17.657-11.283
				c2.236-6.021,0.333-13.316-4.966-19.038c-6.039-6.523-12.546-7.892-16.941-7.892c-3.648,0-6.134,0.937-6.158,0.947
				c-0.167,0.064-0.354,0.034-0.493-0.077c-0.139-0.112-0.208-0.289-0.181-0.464c0.033-0.222,3.545-22.229,20.148-31.085
				c3.854-2.055,7.796-3.097,11.717-3.097c10.51,0,17.33,7.31,17.615,7.621c7.885,10.014,19.113,39.582,7.459,48.905
				C75.475,166.903,59.708,172.588,45.729,172.588z M41.245,132.378c4.595,0,11.391,1.424,17.676,8.212
				c5.556,6.001,7.537,13.69,5.169,20.066c-1.843,4.964-5.995,8.588-11.945,10.542c12.109-1.44,25.323-6.856,38.615-15.875
				c10.341-8.275,1-36.495-7.627-47.454c-0.043-0.044-6.797-7.268-16.855-7.268c-3.755,0-7.539,1.002-11.246,2.98
				c-14.38,7.669-18.685,25.539-19.482,29.546C36.61,132.827,38.632,132.378,41.245,132.378z"/>
		</g>
		<path style="opacity:0.5;fill:#D75E36;" d="M83.525,107.56c0,0-0.858-0.932-2.418-2.134c2.195,4.08,3.547,8.731,4.369,13.094
			c1.839,9.756,2.351,20.907-1.383,30.304c-4.783,12.038-14.514,18.095-26.615,21.572c-1.349,0.388-2.709,0.767-4.073,1.138
			c10.632-1.468,23.306-6.073,37.635-15.797C102.09,146.897,91.702,117.947,83.525,107.56z"/>
		<g>
			<path style="fill:#FDD2BA;" d="M58.554,140.93c-11.05-11.934-23.646-7.072-23.646-7.072s-20.552,6.85-17.458,24.088
				c1.16,5.802,11.275,14.083,28.102,14.141C66.316,169.735,69.16,152.385,58.554,140.93z"/>
			<path style="fill:#5A2800;" d="M45.552,172.587c0,0-0.001,0-0.002,0c-17.532-0.06-27.425-8.713-28.591-14.543
				c-3.136-17.472,17.58-24.59,17.79-24.66c0.085-0.034,2.648-1.006,6.496-1.006c4.595,0,11.391,1.424,17.676,8.212
				c5.556,6.001,7.537,13.69,5.169,20.066c-2.458,6.62-9.022,10.856-18.481,11.928C45.589,172.587,45.57,172.587,45.552,172.587z
				 M41.245,133.378c-3.649,0-6.134,0.937-6.158,0.947c-0.223,0.075-20.126,6.926-17.146,23.533
				c1.142,5.711,11.364,13.664,27.583,13.729c9.052-1.032,15.31-5.037,17.628-11.279c2.236-6.021,0.333-13.316-4.966-19.038
				C52.147,134.747,45.641,133.378,41.245,133.378z"/>
		</g>
	</g>
	<g>
		<path style="fill:#FFC390;" d="M121.332,154.677c0,0-4.288,10.865,3.146,12.295c7.434,1.43,11.437-10.293,11.437-10.293
			L121.332,154.677z"/>
		<path style="fill:#5A2800;" d="M125.726,167.593L125.726,167.593c-0.443-0.001-0.895-0.044-1.343-0.13
			c-1.815-0.35-3.138-1.257-3.93-2.698c-2.095-3.811,0.311-10.01,0.414-10.272c0.085-0.214,0.3-0.346,0.533-0.311l14.583,2.001
			c0.147,0.02,0.278,0.105,0.357,0.232c0.078,0.127,0.096,0.283,0.048,0.424C136.238,157.279,132.637,167.593,125.726,167.593z
			 M121.664,155.227c-0.469,1.355-1.935,6.148-0.334,9.058c0.651,1.184,1.711,1.902,3.242,2.196
			c0.386,0.074,0.774,0.112,1.153,0.112c5.326,0.001,8.649-7.37,9.5-9.504L121.664,155.227z"/>
	</g>
	<path style="fill:#FFC390;" d="M133.796,161.107c1.396-2.319,2.119-4.429,2.119-4.429l-14.583-2.001c0,0-0.72,1.826-1.059,4.079
		C124.541,160.541,129.158,161.21,133.796,161.107z"/>
	<g>
		<path style="fill:#FFC390;" d="M41.824,215.114c0,0,2.596,1.623,4.976,4.327c2.38,2.704,4.651,3.569,5.301,2.596
			c0.649-0.974-1.406-3.786-1.406-3.786s4.976,2.273,6.058,0.758c1.082-1.515-3.461-5.085-3.461-5.085s4.326,1.19,4.976-0.216
			c0.649-1.406-3.569-4.544-3.569-4.544s7.248,2.489,6.49-4.435c-0.758-6.924-15.253-15.253-15.253-15.253
			S41.716,200.186,41.824,215.114z"/>
		<path style="fill:#5A2800;" d="M51.272,222.924C51.272,222.924,51.272,222.924,51.272,222.924c-1.299,0-3.111-1.179-4.848-3.152
			c-2.306-2.619-4.841-4.218-4.865-4.233c-0.146-0.091-0.234-0.249-0.235-0.42c-0.107-14.854,4.102-25.717,4.146-25.825
			c0.053-0.135,0.162-0.24,0.3-0.288c0.138-0.048,0.289-0.034,0.414,0.038c0.601,0.346,14.725,8.537,15.501,15.632
			c0.2,1.833-0.12,3.233-0.952,4.161c-0.751,0.839-1.877,1.264-3.347,1.264c-0.279,0-0.552-0.016-0.811-0.041
			c1.281,1.164,2.657,2.753,2.146,3.859c-0.3,0.648-1.069,0.977-2.289,0.977c-0.457,0-0.937-0.045-1.384-0.107
			c1.371,1.309,3.001,3.267,2.111,4.513c-0.347,0.484-0.955,0.729-1.81,0.729c-1.067,0-2.395-0.383-3.393-0.737
			c0.563,1.01,1.058,2.276,0.56,3.023C52.255,222.707,51.813,222.924,51.272,222.924z M42.322,214.843
			c0.701,0.468,2.839,1.98,4.853,4.269c1.71,1.942,3.29,2.813,4.097,2.813h0.001c0.303,0,0.385-0.124,0.412-0.164
			c0.26-0.39-0.521-2.018-1.394-3.214c-0.135-0.184-0.128-0.434,0.016-0.61c0.145-0.179,0.388-0.234,0.596-0.14
			c0.026,0.013,2.723,1.233,4.447,1.233c0.353,0,0.812-0.054,0.995-0.311c0.525-0.734-1.615-3.027-3.362-4.4
			c-0.188-0.147-0.245-0.406-0.138-0.618c0.107-0.213,0.351-0.317,0.579-0.258c0.017,0.005,1.664,0.453,3.008,0.453
			c0.75,0,1.267-0.148,1.381-0.396c0.282-0.611-1.572-2.563-3.414-3.933c-0.197-0.148-0.258-0.416-0.144-0.634
			c0.116-0.218,0.37-0.32,0.604-0.24c0.012,0.004,1.212,0.408,2.526,0.408c1.173,0,2.049-0.314,2.603-0.931
			c0.635-0.708,0.87-1.847,0.702-3.385c-0.643-5.873-11.935-13.02-14.493-14.569C45.367,192.572,42.275,202.213,42.322,214.843z"/>
	</g>
	<g>
		<g>
			<path style="fill:#FFC390;" d="M183.545,138.442c0,0,0.25,7,7.25,3.5s9.5-19,1.5-21.25s-12.5,11.417-12.5,11.417
				s-5-19.834,0.5-37.334c-21.333,18.334-23.833,5.5-11.833-10.666c-21,12-29.667,7.333-14.5-7.667c-23.333,9.166-32,4.167-18-5.166
				c-27.333,11.167-31.501,3-20.667-8.167c-18.269,10.218-21.387,6.183-21.115,1.628c-2.113,4.475-4.131,10.833-4.885,19.538
				c-1.666,15.833-12,19.833-11.334,34.666c0.668,14.834,33.834,54,85.334,34.5C179.045,146.192,183.545,138.442,183.545,138.442z"
				/>
			<path style="fill:#5A2800;" d="M135.711,159.273h-0.001c-36.658-0.001-57.722-28.611-58.248-40.309
				c-0.358-7.964,2.391-12.848,5.302-18.019c2.584-4.592,5.257-9.34,6.034-16.722c0.651-7.522,2.311-14.153,4.93-19.699
				c0.103-0.217,0.345-0.333,0.576-0.271c0.232,0.059,0.39,0.275,0.375,0.514c-0.086,1.441,0.203,2.525,0.857,3.22
				c0.633,0.671,1.645,1.011,3.007,1.011c3.449,0,9.003-2.128,16.508-6.326c0.217-0.121,0.488-0.065,0.641,0.132
				c0.151,0.197,0.135,0.475-0.038,0.653c-4.17,4.298-6.097,8.196-5.153,10.425c0.776,1.835,3.377,2.221,5.421,2.221
				c4.516,0,11.38-1.83,19.852-5.291c0.238-0.099,0.51,0.001,0.631,0.229c0.121,0.227,0.05,0.508-0.164,0.65
				c-4.54,3.026-6.955,5.81-6.459,7.446c0.319,1.055,2.019,1.66,4.663,1.66c4.557,0,11.424-1.712,19.336-4.82
				c0.219-0.087,0.472-0.006,0.602,0.192c0.13,0.199,0.102,0.461-0.067,0.628c-5.502,5.441-8.248,9.998-7.347,12.19
				c0.486,1.184,2.048,1.432,3.272,1.432c3.923,0,10.474-2.459,17.975-6.745c0.205-0.117,0.465-0.075,0.622,0.102
				c0.157,0.177,0.169,0.44,0.027,0.63c-5.432,7.318-8.173,14.523-6.664,17.521c0.452,0.9,1.263,1.337,2.477,1.337
				c3.207,0,8.639-3.15,15.293-8.869c0.17-0.146,0.416-0.161,0.602-0.038c0.187,0.123,0.269,0.354,0.201,0.567
				c-4.491,14.293-1.876,30.354-0.848,35.434c1.356-3.277,4.96-10.417,10.607-10.417c0.626,0,1.265,0.09,1.899,0.269
				c2.98,0.838,4.902,3.553,5.272,7.448c0.496,5.229-1.918,12.347-6.685,14.73c-1.371,0.685-2.604,1.033-3.666,1.033
				c-2.545,0-3.702-1.97-4.117-3.652c-1.82,2.399-7.276,8.393-19.731,14.126C154.072,157.469,144.732,159.273,135.711,159.273z
				 M93.826,66.766c-2.106,5.054-3.461,10.948-4.033,17.553c-0.799,7.597-3.523,12.437-6.158,17.118
				c-2.838,5.042-5.52,9.805-5.175,17.483c0.542,12.02,22.731,39.353,57.25,39.354c8.899,0,18.121-1.783,27.408-5.299
				c15.395-7.088,19.95-14.707,19.994-14.783c0.111-0.193,0.338-0.286,0.553-0.234c0.217,0.054,0.371,0.244,0.38,0.466
				c0.006,0.163,0.191,3.999,3.308,3.999c0.905,0,1.988-0.312,3.219-0.927c4.249-2.125,6.604-8.821,6.136-13.741
				c-0.193-2.034-1.041-5.594-4.548-6.58c-0.546-0.154-1.094-0.231-1.628-0.231c-6.452,0-10.224,11.211-10.262,11.323
				c-0.069,0.211-0.279,0.368-0.492,0.343c-0.223-0.008-0.413-0.162-0.467-0.377c-0.049-0.193-4.675-18.967,0.032-35.997
				c-6.335,5.26-11.389,8.031-14.667,8.031c-1.583,0-2.749-0.652-3.37-1.888c-1.591-3.161,0.541-9.606,5.454-16.749
				c-6.906,3.745-12.722,5.791-16.521,5.791c-2.772,0.001-3.813-1.116-4.197-2.052c-0.99-2.407,1.123-6.505,5.971-11.647
				c-7.129,2.637-13.31,4.076-17.569,4.076c-4.053,0-5.293-1.289-5.621-2.37c-0.499-1.651,0.833-3.837,3.794-6.301
				c-7.037,2.641-12.643,3.978-16.695,3.978c-4.252,0-5.795-1.54-6.342-2.831c-0.944-2.232,0.29-5.559,3.405-9.338
				c-9.667,5.091-15.735,6.329-18.176,3.739C94.334,68.169,94.006,67.531,93.826,66.766z"/>
		</g>
		<g>
			<path style="fill:#FBC410;" d="M230.045,61.692c0,0,7.75,2.5,8.5,0.5s-4.25-5.25-10-4.5c2.75-11.5,0-13.5-1.5-13.5
				s-3.75,9.5-3.75,9.5s-5.75-41.25-62.25-49.25c-37.25-2.5-67.566,16.793-67.566,16.793c-22.07,13.062-29.889,29.027-24.26,31.955
				c5.631,2.928,19.305-4.03,19.305-4.03s-8.825,5.41-6.508,9.556s18.414-2.926,18.414-2.926s-3.225,2.541-6.25,8.947
				c-0.271,4.554,2.847,8.589,21.115-1.628c-10.834,11.167-6.666,19.334,20.667,8.167c-14,9.333-5.333,14.333,18,5.166
				c-15.167,15-6.5,19.667,14.5,7.667c-12,16.166-9.5,29,11.833,10.666c-5.5,17.5-0.5,37.334-0.5,37.334s4.5-13.667,12.5-11.417
				s5.5,17.75-1.5,21.25s-7.25-3.5-7.25-3.5s-4.5,7.75-20.25,15c39.75,0.75,73.25-13.25,70.5-42.25c3.5,6.25,3.5,9.25,5.25,9
				s0.25-16.25,0.25-16.25s4.25,4,5.75,3.25S249.045,78.692,230.045,61.692z"/>
			<path style="fill:#5A2800;" d="M166.313,153.971c-1.004,0-2.016-0.01-3.028-0.029c-0.232-0.004-0.432-0.169-0.479-0.397
				c-0.048-0.229,0.068-0.459,0.28-0.557c15.388-7.083,19.982-14.721,20.027-14.797c0.111-0.192,0.337-0.288,0.553-0.233
				c0.216,0.054,0.37,0.244,0.379,0.466c0.006,0.163,0.19,3.999,3.308,3.999c0.905,0,1.988-0.312,3.219-0.927
				c4.249-2.125,6.604-8.821,6.136-13.741c-0.193-2.034-1.041-5.594-4.548-6.58c-0.546-0.154-1.094-0.231-1.628-0.231
				c-6.458,0-10.225,11.21-10.262,11.323c-0.069,0.211-0.279,0.368-0.492,0.343c-0.223-0.008-0.413-0.162-0.467-0.377
				c-0.049-0.193-4.675-18.967,0.032-35.997c-6.336,5.26-11.389,8.031-14.667,8.031c-1.583,0-2.748-0.653-3.369-1.888
				c-1.591-3.162,0.541-9.607,5.453-16.749c-6.906,3.746-12.722,5.791-16.521,5.791c-2.771,0-3.811-1.116-4.196-2.052
				c-0.99-2.408,1.123-6.505,5.97-11.646c-7.129,2.637-13.31,4.076-17.569,4.076c-4.052,0-5.292-1.289-5.619-2.37
				c-0.5-1.651,0.832-3.837,3.792-6.301c-7.037,2.641-12.643,3.978-16.695,3.978c-4.251,0-5.794-1.54-6.341-2.832
				c-0.944-2.232,0.29-5.559,3.404-9.338c-9.667,5.091-15.735,6.327-18.176,3.739c-0.852-0.904-1.231-2.238-1.128-3.965
				c0.004-0.063,0.02-0.126,0.047-0.184c1.666-3.528,3.385-5.897,4.621-7.336c-3.211,1.26-9.085,3.333-12.981,3.333
				c-1.936,0-3.21-0.525-3.788-1.559c-1.439-2.576,0.817-5.467,3.091-7.518c-3.327,1.357-8.078,2.966-11.899,2.966
				c-1.521,0-2.793-0.261-3.782-0.775c-1.279-0.666-1.979-1.922-2.027-3.634c-0.178-6.513,8.966-18.958,26.263-29.195
				c0.255-0.163,27.237-17.087,61.104-17.087c2.259,0,4.53,0.076,6.751,0.225c29.393,4.161,44.867,17.427,52.679,27.824
				c6.19,8.238,8.682,16.04,9.582,19.693c0.94-3.549,2.345-7.768,3.706-7.768c0.436,0,1.273,0.136,1.991,1.045
				c1.512,1.916,1.563,6.19,0.155,12.385c0.352-0.027,0.705-0.041,1.057-0.041c3.991,0,7.244,1.68,8.394,3.34
				c0.591,0.852,0.528,1.528,0.371,1.946c-0.273,0.729-1.108,1.1-2.48,1.1c-1.433,0-3.268-0.383-4.647-0.734
				c14.464,14.231,15.337,34.966,14.398,41.973c-0.348,2.6-0.816,2.834-1.015,2.933c-0.194,0.097-0.418,0.146-0.665,0.146h-0.001
				c-1.355-0.001-3.464-1.593-4.695-2.633c0.634,7.227,0.943,15.287-0.792,15.535c-1.43,0.205-1.934-1.013-2.899-3.301
				c-0.437-1.035-0.988-2.341-1.777-3.915c0.245,8.187-2.433,15.414-7.978,21.509C215.483,147.049,193.561,153.971,166.313,153.971z
				 M165.456,152.968c0.286,0.001,0.572,0.002,0.857,0.002c26.966,0,48.619-6.802,59.407-18.663
				c5.867-6.45,8.416-14.211,7.576-23.069c-0.022-0.235,0.123-0.454,0.349-0.524c0.227-0.072,0.47,0.026,0.586,0.233
				c1.433,2.559,2.284,4.576,2.905,6.049c0.851,2.016,1.206,2.794,1.838,2.7c0.701-0.696,0.479-8.706-0.178-15.708
				c-0.02-0.207,0.092-0.405,0.278-0.496c0.188-0.092,0.411-0.057,0.563,0.085c1.318,1.24,3.832,3.207,4.966,3.208l0,0
				c0.09,0,0.163-0.014,0.218-0.041c1.259-1.504,3.494-28.034-15.109-44.68c-0.177-0.157-0.218-0.417-0.101-0.622
				c0.117-0.205,0.359-0.299,0.587-0.227c0.039,0.013,3.91,1.251,6.334,1.251c0.874,0,1.438-0.164,1.545-0.451
				c0.131-0.351-0.067-0.751-0.257-1.025c-0.978-1.411-3.964-2.91-7.572-2.91c-0.548,0-1.099,0.036-1.639,0.106
				c-0.163,0.021-0.326-0.039-0.436-0.161c-0.109-0.122-0.152-0.291-0.114-0.451c1.99-8.322,0.975-11.228,0.192-12.219
				c-0.456-0.579-0.951-0.665-1.206-0.665c-0.712,0.271-2.272,4.934-3.264,9.115c-0.056,0.234-0.256,0.394-0.51,0.384
				c-0.24-0.011-0.439-0.192-0.472-0.43c-0.015-0.103-1.531-10.355-9.876-21.438c-7.7-10.228-22.963-23.282-51.949-27.386
				c-2.162-0.144-4.411-0.219-6.647-0.219c-33.565,0-60.313,16.77-60.58,16.939c-10.144,6.004-16.242,11.981-19.574,15.939
				c-3.973,4.72-6.295,9.347-6.212,12.376c0.037,1.346,0.538,2.279,1.488,2.773c0.846,0.44,1.963,0.663,3.321,0.663
				c6.225,0,15.434-4.647,15.526-4.695c0.236-0.118,0.531-0.033,0.663,0.202c0.131,0.234,0.054,0.53-0.175,0.67
				c-2.341,1.436-8.04,5.832-6.333,8.886c0.389,0.695,1.369,1.047,2.915,1.047c5.268,0,14.766-4.146,14.861-4.188
				c0.234-0.101,0.5-0.014,0.629,0.2c0.13,0.215,0.079,0.494-0.118,0.65c-0.031,0.025-3.148,2.541-6.065,8.68
				c-0.068,1.394,0.223,2.445,0.863,3.125c0.632,0.671,1.644,1.012,3.006,1.012c3.449,0,9.003-2.128,16.508-6.326
				c0.217-0.121,0.488-0.065,0.641,0.132c0.151,0.197,0.135,0.475-0.038,0.653c-4.169,4.298-6.096,8.195-5.152,10.425
				c0.777,1.836,3.376,2.221,5.42,2.221c4.516,0,11.38-1.829,19.852-5.291c0.238-0.099,0.51,0.001,0.631,0.229
				c0.121,0.227,0.05,0.508-0.164,0.65c-4.539,3.026-6.954,5.81-6.458,7.445c0.319,1.055,2.019,1.66,4.662,1.66
				c4.557,0,11.424-1.712,19.336-4.82c0.219-0.087,0.472-0.006,0.602,0.192c0.13,0.199,0.102,0.461-0.067,0.628
				c-5.501,5.44-8.247,9.997-7.346,12.19c0.486,1.184,2.048,1.432,3.271,1.432c3.922,0,10.474-2.459,17.975-6.745
				c0.205-0.117,0.465-0.075,0.622,0.102c0.157,0.177,0.169,0.44,0.027,0.63c-5.432,7.318-8.172,14.523-6.663,17.521
				c0.452,0.899,1.263,1.337,2.476,1.337c3.207,0,8.639-3.149,15.293-8.869c0.17-0.146,0.416-0.161,0.602-0.038
				c0.187,0.123,0.269,0.354,0.201,0.567c-4.491,14.293-1.876,30.354-0.848,35.434c1.356-3.277,4.96-10.418,10.607-10.418
				c0.626,0,1.265,0.09,1.899,0.269c2.98,0.838,4.902,3.553,5.272,7.448c0.496,5.229-1.918,12.347-6.685,14.73
				c-1.37,0.685-2.604,1.033-3.666,1.033c-2.546,0-3.702-1.97-4.118-3.652C181.513,142.04,176.536,147.528,165.456,152.968z"/>
		</g>
	</g>
	<path style="fill:#5A2800;" d="M96.008,104.614c-1.033,0-1.947-0.25-2.736-0.752c-3.518-2.234-3.126-8.573-3.107-8.842
		c0.019-0.275,0.268-0.488,0.532-0.464c0.275,0.019,0.483,0.257,0.466,0.532c-0.005,0.06-0.369,6.017,2.646,7.931
		c1.679,1.064,4.154,0.703,7.36-1.078c0.241-0.135,0.546-0.047,0.68,0.194c0.134,0.241,0.048,0.545-0.194,0.68
		C99.496,104.013,97.609,104.614,96.008,104.614z"/>
	<path style="fill:#5A2800;" d="M130.587,114.796c-1.119,0-2.183-0.195-3.186-0.585c-4.134-1.607-5.682-5.921-5.745-6.104
		c-0.092-0.261,0.046-0.545,0.307-0.637c0.261-0.091,0.546,0.046,0.637,0.306c0.015,0.04,1.47,4.071,5.172,5.505
		c2.533,0.981,5.546,0.551,8.954-1.28c0.241-0.13,0.546-0.04,0.677,0.204c0.131,0.244,0.039,0.546-0.204,0.677
		C134.827,114.157,132.614,114.796,130.587,114.796z"/>
	<path style="fill:#5A2800;" d="M110.869,147.374c-3.381,0-6.455-0.674-9.209-2.025c-8.521-4.179-10.761-13.241-10.852-13.624
		c-0.064-0.269,0.102-0.538,0.371-0.602c0.269-0.061,0.537,0.102,0.602,0.371c0.021,0.089,2.232,8.999,10.33,12.963
		c6.375,3.121,14.62,2.429,24.506-2.056c0.252-0.112,0.549-0.002,0.662,0.249c0.114,0.251,0.003,0.548-0.248,0.662
		C121.063,146.018,115.66,147.374,110.869,147.374z"/>
	<path style="fill:#F4931F;" d="M94.879,84.859c0,0,3.666-1.001,6.75,2.833c0.5,0.417-0.334-1.5,0.916-1.25
		S98.712,79.276,94.879,84.859z"/>
	<path style="fill:#F4931F;" d="M129.226,95.212c0,0,4.142,0,7.514,3.275c1.253,1.156,2.023-2.215-1.059-4.72
		c-3.082-2.505-7.32-0.578-4.72-0.192C133.561,93.961,130.188,93.189,129.226,95.212z"/>
	<path style="opacity:0.5;fill:#F38395;" d="M82.927,103.172c-0.184-0.023-0.364-0.042-0.545-0.06
		c-0.874,1.409-1.635,2.964-2.325,4.57c0.689,0.191,1.439,0.346,2.233,0.448c3.561,0.457,6.59-0.281,6.766-1.652
		C89.231,105.11,86.487,103.629,82.927,103.172z"/>
	<path style="opacity:0.5;fill:#F38395;" d="M146.997,125.319c-0.237,1.36-3.298,1.961-6.834,1.343
		c-3.535-0.619-6.209-2.224-5.972-3.584c0.238-1.358,3.299-1.961,6.833-1.341C144.561,122.356,147.235,123.959,146.997,125.319z"/>
	<g>
		<path style="fill:#5A2800;" d="M187.468,136.778c-0.171,0.075-0.377,0.017-0.482-0.147c-0.622-0.96-2.386-5.517,1.077-8.644
			c1.184-1.07,2.237-1.461,3.129-1.16c1.348,0.451,1.72,2.302,1.734,2.38c0.039,0.21-0.1,0.419-0.309,0.455
			c-0.211,0.042-0.416-0.096-0.458-0.307c-0.002-0.016-0.3-1.486-1.217-1.79c-0.752-0.25-1.697,0.406-2.357,0.999
			c-3.442,3.111-0.974,7.601-0.944,7.643c0.117,0.182,0.064,0.422-0.116,0.539C187.507,136.759,187.488,136.769,187.468,136.778z"/>
		<path style="fill:#5A2800;" d="M189.893,134.201c-0.697,0.304-1.639,0.55-2.415,0.171c-0.783-0.383-1.213-1.285-1.277-2.681
			c-0.009-0.216,0.159-0.398,0.373-0.407c0.215-0.011,0.396,0.156,0.406,0.371c0.05,1.089,0.333,1.767,0.841,2.016
			c0.822,0.402,2.178-0.342,2.629-0.663c0.176-0.129,0.419-0.083,0.543,0.092c0.126,0.177,0.083,0.419-0.091,0.543
			C190.863,133.669,190.456,133.955,189.893,134.201z"/>
	</g>
	<g>
		<path style="fill:#3F1C08;" d="M48.826,125.924c-0.223,1.743-1.816,2.975-3.56,2.751c-1.743-0.225-2.975-1.819-2.751-3.562
			c0.225-1.741,1.818-2.973,3.562-2.749C47.82,122.588,49.051,124.182,48.826,125.924z"/>
		<path style="fill:#FFFFFF;" d="M45.43,124.286c-0.064,0.489-0.513,0.835-1.002,0.773c-0.489-0.064-0.836-0.511-0.773-1.002
			c0.063-0.489,0.511-0.835,1.002-0.773C45.145,123.347,45.492,123.796,45.43,124.286z"/>
	</g>
	<g>
		<path style="fill:#3F1C08;" d="M73.23,127.209c-0.223,1.743-1.816,2.975-3.56,2.751c-1.743-0.225-2.975-1.819-2.751-3.562
			c0.225-1.741,1.818-2.973,3.562-2.749C72.225,123.873,73.455,125.466,73.23,127.209z"/>
		<path style="fill:#FFFFFF;" d="M69.834,125.57c-0.064,0.489-0.513,0.835-1.002,0.773c-0.489-0.063-0.836-0.511-0.773-1.002
			c0.063-0.489,0.511-0.835,1.002-0.773C69.549,124.632,69.896,125.081,69.834,125.57z"/>
	</g>
	<g>
		<path style="fill:#3D1603;" d="M21.883,150.936c0,0,8.057-0.859,14.609,2.363c6.552,3.223-4.727,11.064-10.742,9.56
			C19.734,161.355,11.786,152.118,21.883,150.936z"/>
		<path style="fill:#5A2800;" d="M27.404,163.549c-0.636,0-1.232-0.069-1.775-0.205c-4.149-1.037-9.291-5.671-9.066-9.172
			c0.092-1.433,1.079-3.244,5.261-3.733c0.047-0.005,1.025-0.107,2.58-0.107c3.279,0,8.076,0.437,12.309,2.518
			c2.376,1.169,2.384,2.835,2.177,3.725C38.116,159.899,32.105,163.549,27.404,163.549z M24.404,151.332
			c-1.497,0-2.459,0.1-2.469,0.101c-1.925,0.226-4.252,0.896-4.375,2.803c-0.179,2.787,4.248,7.122,8.311,8.138
			c0.464,0.116,0.979,0.174,1.533,0.174c4.153,0,9.851-3.361,10.512-6.2c0.248-1.067-0.306-1.942-1.644-2.601
			C31.997,151.646,27.002,151.332,24.404,151.332z"/>
	</g>
	<path style="fill:#541700;" d="M45.754,117.505c0,0,1.471-1.245,3.621,0.679c1.018,0.566,1.584-2.037-0.566-2.716
		C46.659,114.79,45.188,114.677,45.754,117.505z"/>
	<path style="fill:#541700;" d="M67.253,118.297c0,0,1.924-0.791,3.395,0.113c1.471,0.905,0.905-2.489-2.037-2.603
		C65.668,115.695,66.008,116.827,67.253,118.297z"/>
	<path style="fill:#5A2800;" d="M31.66,170.429c-0.147,0-0.294-0.065-0.392-0.19c-2.598-3.295-2.529-7.31-2.525-7.479
		c0.007-0.276,0.271-0.476,0.512-0.487c0.275,0.006,0.494,0.235,0.488,0.511c-0.001,0.038-0.058,3.831,2.311,6.836
		c0.171,0.217,0.134,0.531-0.083,0.702C31.878,170.394,31.769,170.429,31.66,170.429z"/>
	<path style="fill:#5A2800;" d="M39.473,172.364c-0.056,0-0.087-0.001-0.093-0.001c-0.275-0.009-0.491-0.239-0.483-0.516
		c0.009-0.271,0.231-0.484,0.5-0.484c0.037-0.002,0.083,0.003,0.185,0.003c1.481,0,11.442-0.405,14.322-11.141
		c0.072-0.267,0.345-0.425,0.613-0.354c0.267,0.072,0.425,0.346,0.354,0.612C51.766,172.058,40.61,172.364,39.473,172.364z"/>
	<g>
		<path style="fill:#F38395;" d="M33.625,170.501c0,0-5.945,1.835-5.945,9.394c0,7.56,10.863,8.147,11.744,0.734
			c0.88-7.412,2.494-8.661,2.494-8.661S37.515,171.749,33.625,170.501z"/>
		<path style="fill:#5A2800;" d="M33.596,186.388L33.596,186.388c-3.189,0-6.416-2.23-6.416-6.493c0-7.837,6.235-9.852,6.298-9.871
			c0.099-0.031,0.205-0.03,0.3,0.001c3.784,1.213,8.122,1.442,8.166,1.444c0.209,0.011,0.389,0.15,0.451,0.35
			c0.064,0.199-0.005,0.418-0.171,0.545c-0.002,0.003-1.479,1.379-2.304,8.324C39.452,184.625,36.406,186.388,33.596,186.388z
			 M33.632,171.028c-0.89,0.329-5.452,2.337-5.452,8.867c0,3.773,2.808,5.493,5.416,5.493c2.369,0,4.937-1.49,5.332-4.817
			c0.571-4.814,1.457-7.111,2.057-8.169C39.508,172.271,36.475,171.917,33.632,171.028z"/>
	</g>
	<path style="fill:#5A2800;" d="M32.671,184.138c-0.267,0-0.487-0.209-0.499-0.477c-0.374-8.295,4.304-12.414,4.503-12.585
		c0.211-0.18,0.525-0.155,0.704,0.053c0.181,0.209,0.157,0.524-0.052,0.705c-0.045,0.039-4.508,3.996-4.157,11.782
		c0.013,0.275-0.2,0.51-0.477,0.521C32.686,184.138,32.678,184.138,32.671,184.138z"/>
	<g>
		<g>
			<path style="fill:#FB9510;" d="M111.389,179.605c2.22,15.664,17.031,27.211,17.031,27.211
				C127.795,183.816,111.389,179.605,111.389,179.605z"/>
			<path style="fill:#5A2800;" d="M128.42,207.316c-0.109,0-0.218-0.036-0.308-0.105c-0.149-0.117-14.996-11.853-17.219-27.535
				c-0.023-0.165,0.037-0.331,0.162-0.442c0.123-0.112,0.296-0.153,0.457-0.112c0.168,0.043,16.779,4.572,17.407,27.682
				c0.005,0.193-0.102,0.373-0.274,0.46C128.574,207.299,128.497,207.316,128.42,207.316z M112.009,180.334
				c2.178,12.733,12.77,22.699,15.867,25.377c-0.564-10.986-4.903-17.319-8.509-20.724
				C116.359,182.148,113.361,180.827,112.009,180.334z"/>
		</g>
		<g>
			<path style="fill:#A6CE39;" d="M150.406,161.826c-12.347-2.716-39.018,17.78-39.018,17.78s16.406,4.211,17.031,27.211
				c0,0,4.625,1.75,20.25-13.25S162.753,164.542,150.406,161.826z"/>
			<path style="fill:#5A2800;" d="M128.96,207.379L128.96,207.379c-0.432,0-0.658-0.072-0.717-0.095
				c-0.189-0.072-0.317-0.251-0.323-0.454c-0.317-11.679-4.826-18.324-8.553-21.843c-4.04-3.813-8.063-4.888-8.104-4.897
				c-0.185-0.048-0.326-0.197-0.364-0.385c-0.038-0.186,0.033-0.38,0.185-0.496c0.964-0.74,23.744-18.131,36.864-18.131
				c0.919,0,1.782,0.087,2.565,0.26c4.978,1.095,8.37,4.015,9.554,8.223c1.908,6.783-2.224,15.892-11.051,24.367
				C136.369,206.068,130.777,207.379,128.96,207.379z M128.906,206.379c1.233-0.022,6.506-0.778,19.417-13.173
				c8.558-8.215,12.588-16.953,10.781-23.375c-1.079-3.835-4.206-6.505-8.806-7.517c-0.713-0.157-1.504-0.236-2.351-0.236
				c-11.477,0-31.39,14.31-35.501,17.359C115.96,180.771,128.202,186.816,128.906,206.379z"/>
		</g>
		<path style="fill:#A6CE39;" d="M150.406,161.826c-12.347-2.716-39.018,17.78-39.018,17.78s16.406,4.211,17.031,27.211
			c0,0,4.625,1.75,20.25-13.25S162.753,164.542,150.406,161.826z"/>
	</g>
	<g>
		<path style="fill:#FFC390;" d="M116.604,181.982c0,0-22.435,9.959-36.56,8.084c-4.875-0.5-8.75-2.75-11.625-5.75
			s-12.5-3.375-13.5-1.375c-0.625,1.625,3.125,3.25,3.125,3.25s-11-0.5-12.375,3.75c-0.625,2.625,3.5,1.625,3.5,1.625
			s-4.875,1.5-5,4.375c0,2,3.375,1.375,6.25,1.375c0,0-5.5,1.5-5.875,4.5s5.875,0.25,8.125,0.125
			c-5.75,2.375-5.625,4.375-4.625,5.25s7.25-3.125,9.5-2s6.5,1.875,12-0.125s19,15.875,58.5-3.5
			C126.42,192.441,122.539,185.648,116.604,181.982z"/>
		<path style="fill:#5A2800;" d="M94.741,211.174C94.74,211.174,94.741,211.174,94.741,211.174c-9,0-15.171-2.539-19.255-4.219
			c-2.634-1.082-4.588-1.851-5.77-1.419c-2.328,0.847-4.613,1.276-6.791,1.276c-2.1,0-4.09-0.417-5.604-1.174
			c-0.197-0.099-0.463-0.148-0.789-0.148c-1.249,0-3.078,0.706-4.691,1.33c-1.386,0.535-2.583,0.997-3.348,0.997
			c-0.326,0-0.588-0.084-0.777-0.25c-0.546-0.477-0.785-1.113-0.673-1.79c0.14-0.851,0.818-1.696,2.025-2.529
			c-1.036,0.251-2.09,0.464-2.936,0.464c-0.815,0-1.384-0.194-1.737-0.595c-0.3-0.34-0.416-0.798-0.346-1.363
			c0.222-1.773,1.944-3.045,3.525-3.851c-0.16,0.004-0.318,0.006-0.473,0.006c-1.027,0-3.432,0-3.432-1.968
			c0.075-1.729,1.558-2.983,2.944-3.783c-0.517-0.117-0.909-0.341-1.168-0.669c-0.336-0.425-0.425-0.985-0.263-1.664
			c1.108-3.432,7.436-4.059,10.914-4.142c-1.049-0.719-2.089-1.767-1.645-2.922c0.706-1.417,3.746-1.565,5.021-1.565
			c3.309,0,7.47,0.857,9.307,2.774c3.085,3.22,6.998,5.155,11.314,5.599c1.169,0.154,2.429,0.232,3.76,0.232
			c13.744-0.001,32.359-8.193,32.546-8.276c0.152-0.065,0.326-0.054,0.466,0.031c5.971,3.688,10.006,10.577,11.67,19.922
			c0.039,0.22-0.072,0.438-0.272,0.537C115.876,208.092,104.596,211.174,94.741,211.174z M70.521,204.407
			c1.399,0,3.141,0.717,5.346,1.623c4.012,1.65,10.073,4.144,18.874,4.144c9.611,0,20.628-2.991,32.745-8.891
			c-1.631-8.752-5.4-15.219-10.923-18.737c-2.263,0.974-19.621,8.255-32.707,8.256c-1.375,0-2.68-0.081-3.876-0.239
			c-4.541-0.466-8.669-2.507-11.921-5.9c-1.623-1.694-5.588-2.466-8.584-2.466c-2.489,0-3.874,0.502-4.107,0.969
			c-0.319,0.837,1.84,2.118,2.877,2.567c0.221,0.096,0.342,0.337,0.288,0.571c-0.055,0.235-0.265,0.43-0.51,0.387
			c-0.006,0-0.395-0.018-1.032-0.018c-2.284,0-9.817,0.247-10.845,3.423c-0.076,0.327-0.051,0.601,0.085,0.773
			c0.196,0.248,0.673,0.384,1.343,0.384c0.752,0,1.472-0.171,1.479-0.173c0.26-0.058,0.527,0.093,0.599,0.355
			c0.072,0.26-0.076,0.53-0.334,0.609c-0.046,0.015-4.54,1.432-4.647,3.919c0,0.446,0.188,0.946,2.432,0.946
			c0.501,0,1.037-0.022,1.583-0.045c0.578-0.023,1.166-0.048,1.735-0.048c0.25,0,0.462,0.186,0.495,0.434
			c0.033,0.248-0.122,0.482-0.363,0.549c-1.44,0.395-5.237,1.895-5.511,4.08c-0.033,0.268,0.001,0.461,0.104,0.576
			c0.148,0.169,0.489,0.257,0.987,0.257c1.023,0,2.489-0.376,3.783-0.708c1.05-0.27,2.041-0.523,2.728-0.562
			c0.25-0.016,0.461,0.15,0.515,0.388c0.055,0.238-0.071,0.48-0.297,0.573c-4.114,1.699-4.749,3.04-4.831,3.537
			c-0.055,0.33,0.06,0.623,0.34,0.87c-0.001,0,0.039,0.007,0.124,0.007c0.578,0,1.748-0.452,2.987-0.931
			c1.695-0.654,3.616-1.396,5.052-1.396c0.483,0,0.899,0.085,1.236,0.254c0.798,0.398,2.528,1.068,5.156,1.068
			c2.061,0,4.23-0.409,6.449-1.216C69.725,204.469,70.1,204.407,70.521,204.407z"/>
	</g>
	<path style="fill:#FFC390;" d="M118.71,192.613c1.716,3.604,3.157,7.391,4.322,11.26c1.628-0.709,3.287-1.46,5.013-2.307
		c-1.625-9.125-5.506-15.918-11.44-19.584c0,0-1.571,0.695-4.128,1.682C115.221,186.042,117.26,189.568,118.71,192.613z"/>
	<g>
		<path style="fill:#D75E36;" d="M93.129,184.441l-10.5-9.69c0,0-21.834,7.94-22.084,47.44c-0.5,5-3.342,8.187-0.76,13.263
			c1.782,2.939,4.275,2.226,4.811,0.712c2.316,2.315,4.453-1.068,4.453-1.068c3.562,2.493,9.246-0.155,5.746-11.322
			C73.629,218.775,78.516,203.008,93.129,184.441z"/>
		<path style="fill:#5A2800;" d="M62.651,237.98c-1.225,0-2.411-0.812-3.294-2.268c-1.853-3.638-1.075-6.36-0.253-9.242
			c0.386-1.354,0.785-2.753,0.943-4.329c0.127-20.5,6.184-32.416,11.241-38.794c5.514-6.953,10.94-8.983,11.169-9.066
			c0.262-0.095,0.546,0.039,0.641,0.298c0.095,0.26-0.039,0.547-0.298,0.642c-0.216,0.079-21.512,8.325-21.756,46.974
			c-0.169,1.712-0.581,3.154-0.979,4.551c-0.801,2.804-1.492,5.227,0.164,8.482c0.725,1.19,1.678,1.852,2.603,1.743
			c0.598-0.062,1.104-0.442,1.291-0.972c0.058-0.161,0.193-0.282,0.361-0.32c0.162-0.04,0.342,0.012,0.464,0.134
			c0.499,0.499,1,0.708,1.516,0.654c0.995-0.111,1.897-1.219,2.161-1.636c0.073-0.116,0.19-0.196,0.324-0.224
			c0.135-0.028,0.272,0.002,0.386,0.081c1.375,0.962,3.028,1.028,4.21,0.163c2.137-1.565,2.426-5.649,0.771-10.927
			c-1.23-5.271,3.68-21.066,18.419-39.793c0.171-0.216,0.486-0.253,0.702-0.083c0.217,0.171,0.254,0.484,0.083,0.702
			c-14.374,18.263-19.382,34.015-18.239,38.911c2.567,8.186,0.054,11.117-1.146,11.996c-1.411,1.031-3.313,1.064-4.96,0.113
			c-0.455,0.572-1.399,1.555-2.601,1.689c-0.646,0.075-1.257-0.102-1.835-0.515c-0.414,0.563-1.069,0.943-1.806,1.02
			C62.841,237.976,62.746,237.98,62.651,237.98z"/>
	</g>
	<path style="fill:#5A2800;" d="M158.283,272.993c-0.257,0-0.476-0.197-0.497-0.458c-1.097-13.155-11.736-23.202-11.844-23.302
		c-0.202-0.188-0.213-0.505-0.025-0.707c0.189-0.201,0.505-0.213,0.707-0.025c0.11,0.103,11.03,10.415,12.158,23.95
		c0.023,0.275-0.182,0.518-0.456,0.54C158.311,272.992,158.298,272.993,158.283,272.993z"/>
	<g>
		<path style="fill:#5A2800;" d="M38.366,237.614c-0.53,0-1.22-0.225-1.982-1.032c-0.253,0.294-0.547,0.489-0.88,0.582
			c-0.689,0.19-1.251-0.143-1.313-0.182c-0.233-0.148-0.304-0.456-0.156-0.689c0.146-0.231,0.453-0.302,0.684-0.16
			c0.016,0.009,0.257,0.143,0.525,0.065c0.298-0.088,0.515-0.416,0.645-0.676c0.077-0.155,0.229-0.259,0.402-0.274
			c0.17-0.011,0.341,0.06,0.445,0.198c0.443,0.592,1.112,1.264,1.78,1.154c0.552-0.098,0.976-0.718,1.137-1.252
			c0.051-0.171,0.189-0.302,0.363-0.343c0.174-0.04,0.356,0.014,0.479,0.143c0.745,0.786,1.748,0.951,2.554,0.418
			c1.197-0.788,1.959-3.183,0.167-7.341c-3.353-7.779-2.439-31.779,4.455-43.597c0.139-0.239,0.445-0.32,0.684-0.18
			c0.238,0.139,0.319,0.445,0.18,0.684c-7.176,12.303-7.345,35.865-4.4,42.696c2.034,4.721,1.058,7.523-0.534,8.572
			c-1.019,0.674-2.267,0.618-3.279-0.088c-0.333,0.59-0.878,1.139-1.629,1.271C38.592,237.604,38.483,237.614,38.366,237.614z"/>
		<g>
			<path style="fill:#5A2800;" d="M36.337,236.246c-0.189,0-0.37-0.108-0.454-0.292c-2.203-4.804,0.314-8.002,0.423-8.136
				c0.173-0.215,0.486-0.248,0.701-0.074c0.215,0.172,0.249,0.486,0.077,0.702c-0.092,0.115-2.228,2.872-0.293,7.092
				c0.115,0.251,0.005,0.548-0.246,0.662C36.478,236.231,36.407,236.246,36.337,236.246z"/>
			<path style="fill:#5A2800;" d="M40.133,235.992c-0.139,0-0.277-0.058-0.376-0.17c-2.154-2.456-0.731-6.938-0.67-7.127
				c0.085-0.263,0.363-0.407,0.63-0.321c0.263,0.085,0.406,0.367,0.321,0.63c-0.014,0.041-1.308,4.131,0.471,6.158
				c0.182,0.208,0.161,0.523-0.046,0.706C40.367,235.951,40.25,235.992,40.133,235.992z"/>
		</g>
		<g>
			<path style="fill:#5A2800;" d="M64.596,236.666c-0.141,0-0.281-0.06-0.38-0.175c-2.555-2.982-1.522-7.85-1.477-8.056
				c0.06-0.27,0.339-0.438,0.595-0.381c0.269,0.059,0.44,0.325,0.382,0.595c-0.01,0.046-0.969,4.592,1.26,7.191
				c0.18,0.21,0.155,0.525-0.055,0.705C64.827,236.627,64.711,236.666,64.596,236.666z"/>
			<path style="fill:#5A2800;" d="M69.049,235.598c-0.12,0-0.24-0.043-0.336-0.13c-2.555-2.316-1.611-7.128-1.57-7.332
				c0.056-0.271,0.316-0.444,0.59-0.391c0.271,0.055,0.445,0.319,0.391,0.59c-0.009,0.044-0.87,4.459,1.262,6.393
				c0.204,0.186,0.22,0.502,0.034,0.706C69.32,235.542,69.185,235.598,69.049,235.598z"/>
		</g>
		<g>
			<path style="fill:#5A2800;" d="M64.915,239.253c-0.043,0-0.088-0.006-0.132-0.018c-13.877-3.781-18.413-16.249-18.457-16.375
				c-0.092-0.261,0.045-0.546,0.306-0.638c0.255-0.094,0.546,0.044,0.638,0.306c0.042,0.12,4.419,12.103,17.777,15.742
				c0.266,0.072,0.423,0.348,0.351,0.614C65.337,239.106,65.136,239.253,64.915,239.253z"/>
			<path style="fill:#5A2800;" d="M83.629,237.275c-0.272,0-0.496-0.219-0.5-0.492c-0.058-3.936,1.412-7.069,1.475-7.2
				c0.118-0.249,0.417-0.355,0.666-0.236c0.249,0.118,0.355,0.416,0.236,0.666c-0.014,0.03-1.431,3.063-1.377,6.755
				c0.004,0.276-0.217,0.504-0.492,0.508C83.634,237.275,83.631,237.275,83.629,237.275z"/>
			<path style="fill:#5A2800;" d="M54.946,257.508c-2.689,0-4.697-0.775-4.835-0.829c-0.257-0.102-0.383-0.392-0.281-0.648
				c0.101-0.256,0.387-0.383,0.648-0.281c0.052,0.02,5.299,2.03,10.024-0.651c0.238-0.139,0.545-0.053,0.682,0.188
				c0.137,0.24,0.053,0.545-0.188,0.682C58.914,257.15,56.772,257.508,54.946,257.508z"/>
			<path style="fill:#5A2800;" d="M50.182,272.396c-0.211,0-0.407-0.135-0.476-0.347c-1.222-3.787,3.571-8.18,3.776-8.365
				c0.202-0.183,0.52-0.169,0.705,0.035c0.186,0.205,0.17,0.521-0.034,0.707c-0.046,0.041-4.519,4.143-3.496,7.316
				c0.085,0.263-0.06,0.544-0.322,0.629C50.284,272.388,50.232,272.396,50.182,272.396z"/>
			<path style="fill:#5A2800;" d="M46.318,268.419c-0.015,0-0.029-0.001-0.044-0.002c-0.274-0.023-0.479-0.266-0.455-0.541
				c0.356-4.147,3.905-6.94,4.057-7.058c0.217-0.17,0.53-0.129,0.7,0.089c0.17,0.218,0.13,0.532-0.088,0.701
				c-0.033,0.026-3.355,2.65-3.673,6.354C46.793,268.223,46.575,268.419,46.318,268.419z"/>
			<path style="fill:#5A2800;" d="M97.462,253.608c-0.231,0-0.439-0.161-0.489-0.396c-0.057-0.271,0.116-0.535,0.386-0.593
				c0.281-0.06,6.896-1.547,8.954-9.142c0.072-0.266,0.344-0.423,0.613-0.352c0.267,0.072,0.424,0.347,0.351,0.613
				c-2.222,8.201-9.639,9.843-9.713,9.858C97.53,253.605,97.495,253.608,97.462,253.608z"/>
			<path style="fill:#5A2800;" d="M101.462,266.108c-0.163,0-0.323-0.08-0.419-0.227c-2.626-4.027-0.775-7.837-0.695-7.997
				c0.124-0.245,0.419-0.346,0.67-0.224c0.246,0.123,0.348,0.423,0.226,0.67c-0.069,0.14-1.668,3.47,0.638,7.004
				c0.15,0.231,0.086,0.541-0.146,0.692C101.65,266.082,101.556,266.108,101.462,266.108z"/>
			<path style="fill:#5A2800;" d="M106.462,266.441c-0.165,0-0.326-0.082-0.422-0.231c-1.487-2.338-1.467-5.867,0.058-9.939
				l0.057-0.154c0.089-0.263,0.373-0.402,0.633-0.316c0.262,0.088,0.403,0.371,0.316,0.633l-0.069,0.189
				c-1.412,3.77-1.465,6.984-0.15,9.051c0.148,0.233,0.079,0.542-0.153,0.69C106.647,266.416,106.555,266.441,106.462,266.441z"/>
		</g>
	</g>
	<g>
		<g>
			<path style="fill:#AE64A5;" d="M18.467,273.117c-3.725,6.596,7.031,31.344,11.876,36.027c3.45,3.336,6.533,4.467,9.345,4.105
				c-0.7-4.315-2.746-13.111-8.643-24.559C25.857,278.621,21.263,274.671,18.467,273.117z"/>
			<path style="fill:#5A2800;" d="M38.683,313.814L38.683,313.814c-2.846,0-5.688-1.41-8.688-4.311
				c-4.751-4.593-15.923-29.622-11.964-36.633c0.135-0.239,0.438-0.322,0.679-0.191c2.972,1.652,7.602,5.73,12.779,15.783
				c5.948,11.547,7.999,20.436,8.691,24.707c0.022,0.134-0.012,0.271-0.093,0.379c-0.081,0.108-0.202,0.18-0.337,0.197
				C39.397,313.791,39.038,313.814,38.683,313.814z M18.681,273.82c-2.859,6.934,7.203,30.318,12.01,34.965
				c2.804,2.711,5.418,4.029,7.992,4.029l0,0c0.142,0,0.282-0.004,0.423-0.012c-0.764-4.392-2.855-12.915-8.505-23.883
				C25.8,279.602,21.54,275.565,18.681,273.82z"/>
		</g>
		<g>
			<path style="fill:#1486C9;" d="M22.492,271.475c-0.658,0.013-1.35,0.05-2.08,0.114c-0.877,0.21-1.506,0.75-1.945,1.528
				c2.796,1.554,7.391,5.504,12.578,15.574c5.896,11.447,7.942,20.243,8.643,24.559c1.192-0.152,2.336-0.577,3.438-1.216
				C37.082,286.761,27.459,275.705,22.492,271.475z"/>
			<path style="fill:#5A2800;" d="M39.687,313.75c-0.241,0-0.453-0.175-0.492-0.42c-0.684-4.213-2.709-12.985-8.594-24.41
				c-5.064-9.829-9.525-13.781-12.377-15.365c-0.116-0.065-0.202-0.174-0.238-0.302c-0.036-0.128-0.019-0.266,0.046-0.382
				c0.531-0.94,1.293-1.536,2.265-1.768c0.797-0.076,1.509-0.115,2.187-0.128c0.123-0.005,0.241,0.04,0.334,0.119
				c5.175,4.407,14.757,15.572,20.795,40.824c0.052,0.215-0.044,0.438-0.235,0.549c-1.198,0.694-2.418,1.125-3.625,1.279
				C39.73,313.749,39.708,313.75,39.687,313.75z M19.175,272.951c2.978,1.811,7.399,5.97,12.314,15.512
				c5.728,11.12,7.842,19.775,8.609,24.215c0.813-0.159,1.635-0.459,2.451-0.896c-5.919-24.482-15.149-35.413-20.237-39.804
				c-0.599,0.017-1.222,0.053-1.856,0.108C19.964,272.209,19.53,272.495,19.175,272.951z"/>
		</g>
		<g>
			<path style="fill:#FBC410;" d="M52.01,301.561c-1.895-4.845-9.209-14.985-9.209-14.985s-5.598-7.765-9.208-11.015
				c-3.181-2.863-6.225-4.183-11.1-4.086c4.967,4.23,14.59,15.286,20.633,40.559c0.378-0.22,0.752-0.456,1.121-0.724
				C48.219,308.421,53.093,305.895,52.01,301.561z"/>
			<path style="fill:#5A2800;" d="M43.125,312.534c-0.066,0-0.134-0.014-0.197-0.04c-0.145-0.063-0.252-0.19-0.289-0.344
				c-5.972-24.976-15.389-35.967-20.471-40.295c-0.158-0.135-0.217-0.354-0.146-0.549c0.069-0.195,0.253-0.328,0.461-0.332
				l0.502-0.005c4.443,0,7.614,1.223,10.943,4.219c3.608,3.249,9.049,10.775,9.278,11.095c0.301,0.416,7.374,10.247,9.27,15.096
				c1.031,4.111-2.649,6.658-6.209,9.122c-0.581,0.401-1.163,0.804-1.727,1.214c-0.352,0.255-0.731,0.5-1.164,0.752
				C43.299,312.512,43.212,312.534,43.125,312.534z M23.818,271.985c5.287,4.895,13.96,16.018,19.632,39.264
				c0.176-0.113,0.343-0.228,0.503-0.344c0.569-0.414,1.157-0.821,1.744-1.228c3.432-2.374,6.672-4.616,5.827-7.996
				c-1.83-4.67-9.057-14.713-9.129-14.814c-0.056-0.078-5.608-7.76-9.138-10.935C30.304,273.272,27.599,272.127,23.818,271.985z"/>
		</g>
	</g>
	<g>
		<path style="fill:#5A2800;" d="M25.545,280.441c-0.048,0-0.097-0.007-0.145-0.021l-7.875-2.375
			c-0.265-0.079-0.414-0.358-0.334-0.623c0.08-0.264,0.359-0.414,0.623-0.334l7.875,2.375c0.265,0.079,0.414,0.358,0.334,0.623
			C25.958,280.302,25.76,280.441,25.545,280.441z"/>
		<path style="fill:#5A2800;" d="M30.629,288.691c-0.057,0-0.114-0.01-0.17-0.03l-11.75-4.25c-0.26-0.094-0.395-0.38-0.3-0.64
			c0.094-0.26,0.384-0.395,0.64-0.3l11.75,4.25c0.26,0.094,0.394,0.38,0.3,0.64C31.025,288.565,30.833,288.691,30.629,288.691z"/>
		<path style="fill:#5A2800;" d="M34.462,296.358c-0.055,0-0.111-0.009-0.166-0.028l-13.5-4.75
			c-0.261-0.092-0.397-0.377-0.306-0.638c0.092-0.26,0.377-0.398,0.638-0.306l13.5,4.75c0.261,0.092,0.397,0.377,0.306,0.638
			C34.861,296.229,34.668,296.358,34.462,296.358z"/>
		<path style="fill:#5A2800;" d="M36.462,302.191c-0.04,0-0.08-0.005-0.121-0.015l-12.333-3.083
			c-0.268-0.067-0.431-0.339-0.364-0.606c0.066-0.269,0.335-0.431,0.606-0.364l12.333,3.083c0.268,0.067,0.431,0.339,0.364,0.606
			C36.891,302.04,36.687,302.191,36.462,302.191z"/>
		<path style="fill:#5A2800;" d="M38.295,307.775c-0.034,0-0.07-0.004-0.105-0.012l-11.166-2.417
			c-0.271-0.058-0.441-0.324-0.383-0.594c0.059-0.27,0.321-0.441,0.594-0.383l11.166,2.417c0.271,0.058,0.441,0.324,0.383,0.594
			C38.732,307.615,38.525,307.775,38.295,307.775z"/>
	</g>
	<g>
		<g>
			<path style="fill:#1486C9;" d="M98.643,299.283c-5.191,3.57-8.566,14.041-10.348,25.324c-1.18,7.473-3.693,10.825-5.558,12.319
				c0.449,0.352,0.935,0.675,1.5,0.931c0.337,0.152,0.683,0.248,1.029,0.314c0.962-1.547,2.41-3.994,3.862-6.897
				c2.5-5,3.332-13.333,6.832-23.333c1.435-4.098,3.176-6.066,4.733-6.966C100.146,300.32,99.471,299.756,98.643,299.283z"/>
			<path style="fill:#5A2800;" d="M85.267,338.672c-0.031,0-0.063-0.003-0.094-0.009c-0.429-0.082-0.803-0.196-1.142-0.35
				c-0.54-0.245-1.049-0.561-1.603-0.993c-0.12-0.094-0.19-0.238-0.191-0.391c-0.001-0.152,0.068-0.298,0.188-0.393
				c1.817-1.457,4.226-4.723,5.376-12.007c1.217-7.707,4.207-21.29,10.558-25.658c0.158-0.108,0.364-0.117,0.531-0.022
				c0.859,0.491,1.596,1.099,2.188,1.807c0.095,0.113,0.135,0.262,0.108,0.407c-0.025,0.146-0.114,0.272-0.242,0.346
				c-1.802,1.041-3.319,3.294-4.512,6.698c-1.664,4.757-2.719,9.119-3.649,12.968c-1.007,4.165-1.877,7.763-3.207,10.424
				c-1.459,2.917-2.918,5.383-3.885,6.938C85.599,338.584,85.438,338.672,85.267,338.672z M83.54,336.894
				c0.305,0.205,0.6,0.371,0.903,0.509c0.179,0.08,0.372,0.147,0.585,0.204c0.952-1.545,2.303-3.855,3.653-6.556
				c1.279-2.559,2.137-6.105,3.13-10.212c0.936-3.871,1.996-8.26,3.678-13.063c1.162-3.32,2.653-5.638,4.438-6.901
				c-0.37-0.371-0.786-0.7-1.26-0.995c-4.359,3.24-7.86,12.023-9.878,24.806C87.687,331.665,85.418,335.156,83.54,336.894z"/>
		</g>
		<g>
			<path style="fill:#FBC410;" d="M88.295,324.607c1.781-11.283,5.156-21.754,10.348-25.324c-1.043-0.595-2.314-1.057-3.871-1.388
				c-7.859-1.672-8.193,0.334-8.193,0.334c-5.447,7.675-4.682,15.551-4.682,15.551c-2.152,9.224-4.283,19.138,0.841,23.146
				C84.602,335.433,87.115,332.08,88.295,324.607z"/>
			<path style="fill:#5A2800;" d="M82.737,337.427c-0.108,0-0.218-0.035-0.308-0.106c-5.514-4.314-3.044-14.979-1.038-23.576
				c-0.072-0.921-0.473-8.357,4.732-15.738c0.146-0.392,0.776-1.275,3.482-1.275c1.387,0,3.159,0.228,5.27,0.676
				c1.594,0.339,2.906,0.811,4.015,1.442c0.149,0.086,0.244,0.241,0.252,0.413c0.007,0.173-0.075,0.336-0.217,0.434
				c-4.48,3.08-8.079,11.955-10.137,24.99c-1.2,7.6-3.783,11.063-5.739,12.632C82.959,337.39,82.848,337.427,82.737,337.427z
				 M89.606,297.73c-1.869,0-2.473,0.456-2.548,0.632c-0.012,0.074-0.029,0.095-0.072,0.156c-5.268,7.422-4.6,15.137-4.592,15.214
				c0.005,0.054,0.001,0.108-0.011,0.161c-1.904,8.158-4.264,18.268,0.351,22.381c1.774-1.573,3.981-4.869,5.066-11.745
				c1.175-7.438,4-20.349,9.906-25.168c-0.868-0.406-1.87-0.728-3.04-0.977C92.626,297.95,90.923,297.73,89.606,297.73z"/>
		</g>
		<g>
			<path style="fill:#AE64A5;" d="M95.961,307.941c-3.5,10-4.332,18.333-6.832,23.333c-1.452,2.903-2.9,5.35-3.862,6.897
				c6.881,1.321,15.476-13.674,16.861-23.891c0.862-6.357,0.808-10.623-1.434-13.306C99.137,301.875,97.396,303.844,95.961,307.941z
				"/>
			<path style="fill:#5A2800;" d="M86.135,338.754C86.134,338.754,86.134,338.754,86.135,338.754c-0.326,0-0.649-0.031-0.963-0.091
				c-0.161-0.031-0.297-0.14-0.363-0.291c-0.066-0.15-0.054-0.324,0.033-0.464c0.956-1.538,2.398-3.975,3.84-6.857
				c1.279-2.559,2.137-6.105,3.13-10.212c0.936-3.871,1.996-8.26,3.678-13.063c1.272-3.637,2.94-6.07,4.955-7.233
				c0.209-0.122,0.478-0.075,0.634,0.112c2.43,2.908,2.375,7.577,1.545,13.693C101.316,323.986,93.409,338.754,86.135,338.754z
				 M86.111,337.754c0.007,0,0.015,0,0.023,0c6.222,0.001,14.134-13.479,15.499-23.54c0.76-5.605,0.865-9.912-1.056-12.574
				c-1.642,1.124-3.034,3.297-4.145,6.467c-1.664,4.757-2.719,9.119-3.649,12.968c-1.007,4.165-1.877,7.763-3.207,10.424
				C88.315,334.019,87.055,336.203,86.111,337.754z"/>
		</g>
	</g>
	<g>
		<path style="fill:#5A2800;" d="M102.346,306.667c-0.063,0-0.126-0.012-0.187-0.036l-4.75-1.912
			c-0.257-0.103-0.381-0.395-0.277-0.65c0.102-0.257,0.397-0.38,0.65-0.277l4.75,1.912c0.257,0.104,0.381,0.395,0.277,0.65
			C102.731,306.549,102.544,306.667,102.346,306.667z"/>
		<path style="fill:#5A2800;" d="M102.284,312.097c-0.047,0-0.094-0.007-0.141-0.02l-6.726-1.975
			c-0.266-0.077-0.417-0.355-0.339-0.62c0.077-0.265,0.356-0.414,0.62-0.339l6.726,1.975c0.266,0.077,0.417,0.355,0.339,0.62
			C102.7,311.955,102.501,312.097,102.284,312.097z"/>
		<path style="fill:#5A2800;" d="M101.359,318.575c-0.057,0-0.115-0.01-0.172-0.03l-7.59-2.776
			c-0.259-0.095-0.393-0.382-0.298-0.642c0.095-0.258,0.383-0.392,0.642-0.298l7.59,2.776c0.259,0.095,0.393,0.382,0.298,0.642
			C101.755,318.449,101.563,318.575,101.359,318.575z"/>
		<path style="fill:#5A2800;" d="M99.17,325.004c-0.061,0-0.122-0.011-0.182-0.034l-7.062-2.75c-0.257-0.1-0.385-0.39-0.284-0.647
			s0.391-0.386,0.647-0.284l7.063,2.75c0.257,0.1,0.385,0.39,0.284,0.648C99.559,324.883,99.37,325.004,99.17,325.004z"/>
		<path style="fill:#5A2800;" d="M96.295,330.066c-0.065,0-0.131-0.013-0.194-0.039l-5.625-2.375
			c-0.255-0.107-0.374-0.401-0.267-0.655c0.108-0.256,0.403-0.372,0.655-0.267l5.625,2.375c0.255,0.107,0.374,0.401,0.267,0.655
			C96.675,329.952,96.489,330.066,96.295,330.066z"/>
		<path style="fill:#5A2800;" d="M93.482,334.191c-0.069,0-0.139-0.015-0.206-0.044l-4.562-2.063
			c-0.252-0.114-0.363-0.41-0.25-0.662c0.114-0.252,0.409-0.36,0.662-0.25l4.563,2.063c0.252,0.114,0.363,0.41,0.25,0.662
			C93.854,334.082,93.673,334.191,93.482,334.191z"/>
		<path style="fill:#5A2800;" d="M89.545,337.754c-0.074,0-0.149-0.017-0.22-0.051l-2.938-1.438
			c-0.248-0.121-0.351-0.421-0.229-0.669c0.122-0.248,0.424-0.349,0.669-0.229l2.938,1.438c0.248,0.121,0.351,0.421,0.229,0.669
			C89.907,337.651,89.729,337.754,89.545,337.754z"/>
	</g>
	<g>
		<path style="fill:#ED1C26;" d="M67.355,90.074c-9.777-4.589-11.574-8.978-9.777-10.974c1.795-1.996,6.384,1.397,6.384,1.397
			s0.235-5.769,4.79-3.591C73.34,79.101,69.35,84.887,67.355,90.074z"/>
		<path style="fill:#5A2800;" d="M67.355,90.574c-0.072,0-0.146-0.016-0.213-0.047c-8.437-3.96-10.267-7.371-10.606-9.051
			c-0.212-1.05,0.02-1.987,0.671-2.71c0.474-0.527,1.127-0.794,1.941-0.794c1.566,0,3.418,1.021,4.407,1.649
			c0.276-1.608,1.187-3.705,3.337-3.705c0.627,0,1.325,0.182,2.075,0.54c4.117,1.969,2.118,6.404,0.187,10.693
			c-0.463,1.026-0.94,2.087-1.332,3.105c-0.05,0.13-0.151,0.233-0.28,0.285C67.482,90.562,67.419,90.574,67.355,90.574z
			 M59.148,78.972c-0.526,0-0.918,0.152-1.198,0.463c-0.438,0.485-0.583,1.105-0.434,1.843c0.238,1.181,1.653,4.304,9.57,8.115
			c0.357-0.884,0.762-1.782,1.155-2.656c2.196-4.873,3.312-7.937,0.294-9.379c-0.613-0.294-1.167-0.442-1.644-0.442
			c-2.249,0-2.43,3.567-2.431,3.604c-0.009,0.185-0.118,0.35-0.284,0.43c-0.17,0.08-0.365,0.06-0.513-0.048
			C63.639,80.881,61.03,78.972,59.148,78.972z"/>
	</g>
	<g>
		<path style="fill:#FBC410;" d="M230.045,61.692c0,0,7.75,2.5,8.5,0.5s-4.25-5.25-10-4.5c2.75-11.5,0-13.5-1.5-13.5
			s-3.75,9.5-3.75,9.5s-5.75-41.25-62.25-49.25c-5.679-0.381-11.193-0.251-16.467,0.235c17.587,2.329,36.54,11.183,43.385,36.931
			c1.333,8.667-4.666-5.333-16,8.667c7.625,0.636,30.995,17.017-10.12,52.03c1.739,3.029,7.702,1.71,18.452-7.529
			c-5.5,17.5-0.5,37.334-0.5,37.334s4.5-13.667,12.5-11.417s5.5,17.75-1.5,21.25s-7.25-3.5-7.25-3.5s-4.5,7.75-20.25,15
			c39.75,0.75,73.25-13.25,70.5-42.25c3.5,6.25,3.5,9.25,5.25,9s0.25-16.25,0.25-16.25s4.25,4,5.75,3.25
			S249.045,78.692,230.045,61.692z"/>
	</g>
	<path style="fill:#FBC410;" d="M74.63,46.275c0,0,24.471-37.405,73.619-37.955C122.438,4.202,85.854,21.353,74.63,46.275z"/>
	<g>
		<path style="fill:#FFC390;" d="M191.38,125.715c-5.564-0.647-5.435,5.306-7.246,4.918c-1.488-0.319,1.833-10.94,9.599-9.332
			c-0.436-0.254-0.913-0.462-1.438-0.609c-8-2.25-12.5,11.417-12.5,11.417s-5-19.834,0.5-37.334
			c-5.09,4.375-9.096,6.958-12.101,8.162c-4.691,23.598-20.592,73.538-68.642,44.821c14.879,10.028,36.8,15.886,63.742,5.684
			c15.75-7.25,20.25-15,20.25-15s0.25,7,7.25,3.5c2.414-1.207,4.292-3.842,5.39-6.867
			C196.063,131.763,195.278,126.169,191.38,125.715z"/>
	</g>
	<path style="fill:#FFC390;" d="M81.17,110.692c0,0-4.875,9.583,7.292,24.75C81.795,130.942,76.711,118.108,81.17,110.692z"/>
	<path style="fill:#A6CE39;" d="M149.284,163.837c0,0-12.977,3.284-28.746,16.425c-3.285-2.464-3.285-2.464-3.285-2.464
		S136.472,162.358,149.284,163.837z"/>
	<path style="fill:#FFC390;" d="M40.074,253.512c0,0-8.576,6.34-10.627,16.595C27.582,266.377,33.922,255.749,40.074,253.512z"/>
	<path style="fill:#FFC390;" d="M61.91,273.301c0,0,8.82-10.256,25.641-20.308C78.936,255.249,64.987,267.353,61.91,273.301z"/>
	<path style="fill:#E8C0A8;" d="M36.167,135.506c0,0-10.558,3.288-15.232,13.673C21.109,144.333,27.167,136.891,36.167,135.506z"/>
	<path style="fill:#FFC390;" d="M81.834,206.077c0,0,14.382,6.667,37.129-2.354C109.681,205.031,100.006,210.261,81.834,206.077z"/>
	<path style="fill:#28588F;" d="M121.489,247.414c0,0,16.25-2.75,30.25,14.5c-2.75-13-17.5-19-32-20.75L121.489,247.414z"/>
	<path style="fill:#D75E36;" d="M31.607,189.534c0,0-3.461,14.063,3.678,31.37C35.285,220.904,25.982,205.544,31.607,189.534z"/>
	<path style="fill:#D75E36;" d="M80.129,178.775c0,0-17.334,13.167-17.167,43C61.795,208.441,64.795,189.275,80.129,178.775z"/>
</g>
</svg>
