<?xml version="1.0" encoding="utf-8"?>
<!-- Generator: Adobe Illustrator 27.5.0, SVG Export Plug-In . SVG Version: 6.00 Build 0)  -->
<svg version="1.1" xmlns="http://www.w3.org/2000/svg" xmlns:xlink="http://www.w3.org/1999/xlink" x="0px" y="0px"
	 viewBox="0 0 500 500" style="enable-background:new 0 0 500 500;" xml:space="preserve">
<g id="Background">
	<rect style="fill:#FFFFFF;" width="500" height="500"/>
</g>
<g id="Objects">
	<path style="fill:#CCCCFF;" d="M459.26,230.71C452.96,316.3,396.88,413.29,250,469C91.58,408.91,38.79,300.81,40.16,210.77
		C64.19,210.7,64,193.25,64,193.25C96.75,204.75,93,176,93,176c6.75,2.75,31.75,4.75,33-5.75s-24-6.75-24-6.75s3.75-13.5-8.25-16.5
		S74,149.33,74,149.33c-5.4-10.29-11.91-15.71-17.02-18.55C67.02,107.86,80.93,89.03,97,76.5C187,6.33,250,82,250,82
		s50.99-61.25,126.76-22.44c-4.47,1.43-8.87,5.4-11.51,14.44c0,0-18.25-13-16.5,10.25c0,0-22,0-24.25,7.5s35.75,1.75,35.75,1.75
		s-1.75,14,11.25,14.75s15.25-10.75,15.25-10.75s8.5,16,23.5-2.25c0,0,5.63,1.88,11.84,0.35c19.53,24.47,33.41,59.48,36.92,98.97
		c-4.74-1.36-10.73-0.94-17.34,4.43c0,0-17.34-9-20,10.33c0,0-23.67,0-21.34,8.34C402.67,226,422,219,422,219s-4,20.67,17.33,5.33
		C439.33,224.33,442.94,245.64,459.26,230.71z"/>
	<g>
		<defs>
			<path id="SVGID_1_" d="M459.26,230.71C452.96,316.3,396.88,413.29,250,469C91.58,408.91,38.79,300.81,40.16,210.77
				C64.19,210.7,64,193.25,64,193.25C96.75,204.75,93,176,93,176c6.75,2.75,31.75,4.75,33-5.75s-24-6.75-24-6.75
				s3.75-13.5-8.25-16.5S74,149.33,74,149.33c-5.4-10.29-11.91-15.71-17.02-18.55C67.02,107.86,80.93,89.03,97,76.5
				C187,6.33,250,82,250,82s50.99-61.25,126.76-22.44c-4.47,1.43-8.87,5.4-11.51,14.44c0,0-18.25-13-16.5,10.25c0,0-22,0-24.25,7.5
				s35.75,1.75,35.75,1.75s-1.75,14,11.25,14.75s15.25-10.75,15.25-10.75s8.5,16,23.5-2.25c0,0,5.63,1.88,11.84,0.35
				c19.53,24.47,33.41,59.48,36.92,98.97c-4.74-1.36-10.73-0.94-17.34,4.43c0,0-17.34-9-20,10.33c0,0-23.67,0-21.34,8.34
				C402.67,226,422,219,422,219s-4,20.67,17.33,5.33C439.33,224.33,442.94,245.64,459.26,230.71z"/>
		</defs>
		<clipPath id="SVGID_00000022519380219322719670000017284778069750261381_">
			<use xlink:href="#SVGID_1_"  style="overflow:visible;"/>
		</clipPath>
		<path style="clip-path:url(#SVGID_00000022519380219322719670000017284778069750261381_);fill:#A55716;" d="M133.167,216.833
			c0,0-7.833-0.333-10.5-1.833c-2.667-1.5-3.5-3.333-7-2.5s-10,4.667-14,5.333c-4,0.667-8.5,1-10.833,3.167
			c-2.333,2.167-6.667,10.167-10,13.5c-3.333,3.333-5.833,5.5-5.333,8s3.167,6.667,3.167,6.667s2.167-5.5,4.5-7
			c2.333-1.5,8.167-4.333,9.333-4.167s2.833,0.667,3.5,3s-0.333,3.833,2.5,4.667c2.833,0.833,4,4.667,5.667,5.333
			C105.833,251.667,124.5,230,133.167,216.833z"/>
		<path style="clip-path:url(#SVGID_00000022519380219322719670000017284778069750261381_);fill:#824920;" d="M118.625,226.625
			c0,0-1.375-2.5-2.875-3.25s-5-0.875-5.75-0.5s-2.375,3-5,5.5s-4,4-6.5,5.5s-3.5,2.125-3.125,2s3.625,1.5,4.5,2.875s0.25,3,2,4.5
			s5,3.25,5,3.25S115.75,232.625,118.625,226.625z"/>
		<path style="clip-path:url(#SVGID_00000022519380219322719670000017284778069750261381_);fill:#A55716;" d="M184,202.333
			c0,0,7.5-2.667,11-6.833s2.667-5.167,7.667-6.167s8.667,0.5,14.167-1.833s10.833-1.667,11.333-0.833
			c0.5,0.833-1.333,1.667-3.5,4.167C222.5,193.333,219.833,207,220,211s0.667,4.833-0.167,6.833c-0.833,2-2.167,4.667-4.333,4.833
			C213.333,222.833,184,202.333,184,202.333z"/>
		<path style="clip-path:url(#SVGID_00000022519380219322719670000017284778069750261381_);fill:#824920;" d="M200.833,207
			c0.599-0.619,2.287-6.501,2.5-6.667c1.863-1.444,2.833-2.667,3.667-2.5c0.833,0.167,4.333,0.333,6.167,0.5
			c1.833,0.167,3.333,1.333,3.333,1.333s0,8.167,0,9.667s-2.167,5.667-4,6.333C212.5,215.667,201.667,208.333,200.833,207z"/>
		<path style="clip-path:url(#SVGID_00000022519380219322719670000017284778069750261381_);fill:#AC3EB5;" d="M124.333,311.167
			c0,0-11.5-10.5-20.167-10.667S88.5,308.667,80.333,310c0,0,8,13.333,27,12S124.333,311.167,124.333,311.167z"/>
		<path style="clip-path:url(#SVGID_00000022519380219322719670000017284778069750261381_);fill:#D357CA;" d="M121.5,315.167
			c0,0-11-4-18.667,1.667c-7.667,5.667-8.333,13.5-16.333,15.833c0,0,10.5,12.833,26.5,2C129,323.833,121.5,315.167,121.5,315.167z"
			/>
		<path style="clip-path:url(#SVGID_00000022519380219322719670000017284778069750261381_);fill:#FFBE5F;" d="M230.167,303.667
			c1.02-1.967,1.667,4.333-8.667,12.667c-4.403,3.551-11.33,10.037-22.5,13.417c-7.89,2.39-32.5-0.58-43.67-2.92
			c-11.16-2.33-21-4.5-35.83-17.5c-6.37-5.58-9.2-12.21-10.37-18.43c-1.57-8.27-0.2-15.81-0.3-19.23c-0.16-6-6.16-10.17-5.33-19.5
			c0.83-9.34,15.5-31.5,23.67-34.67c7.06-2.74,21.49-3.73,29.35-4.27c1.23-0.09,2.3-0.16,3.15-0.23c6.33-0.5,15.83-10,24-11.17
			c8.16-1.16,13.66-0.66,18,2.17c4.33,2.83,12.83,9.5,16.83,18.83c4,9.34,11.67,20.17,15.83,25c4.17,4.84,2.5,23.84,4.5,30.67
			C238.83,278.5,243,296.333,230.167,303.667z"/>
		<path style="clip-path:url(#SVGID_00000022519380219322719670000017284778069750261381_);fill:#D37D2F;" d="M168.75,260
			c-2.75,2.5-14,10.75-16.5,19.25s-0.75,15.75-21,19c-12.64,2.03-19.14-1.98-22.12-7.35c-1.57-8.27-0.2-15.81-0.3-19.23
			c-0.16-6-6.16-10.17-5.33-19.5c0.83-9.34,15.5-31.5,23.67-34.67c7.06-2.74,21.49-3.73,29.35-4.27
			c-1.13,4.19-1.85,11.19,3.98,15.52c8.75,6.5,11,12.75,12,19.75S171.5,257.5,168.75,260z"/>
		<path style="clip-path:url(#SVGID_00000022519380219322719670000017284778069750261381_);fill:#63290F;" d="M197.833,272
			c-3.376,0.958-8.5,2-12.167,7c-3.667,5,0.833,10.667,5.167,11.667c4.333,1,7.167,5.833,13.5,4.167
			c6.333-1.667,5.786-6.882,8.667-9.667c5-4.833,3.333-10.167,0.667-13.167C211,269,200.876,271.137,197.833,272z"/>
		<path style="clip-path:url(#SVGID_00000022519380219322719670000017284778069750261381_);fill:#63290F;" d="M303.5,304.333
			c0,0-27.833-12.667-39.167-30.5c0,0,15.5,29.167,13.5,50.167c0,0-4.833-29-21.167-48.833s-23.167-44.333-27-49.667
			c-3.833-5.333-15.833-31.333-15-48c0.833-16.667,1.833-23.167,11.5-31.667c9.667-8.5,44.5-35.667,69.333-29.5
			C320.333,122.5,304.167,302.167,303.5,304.333z"/>
		<path style="clip-path:url(#SVGID_00000022519380219322719670000017284778069750261381_);fill:#677854;" d="M269.667,323
			c0,0-19.667,10.667-32.667,42.667s-13.333,36-13.333,36L254,404L269.667,323z"/>
		<path style="clip-path:url(#SVGID_00000022519380219322719670000017284778069750261381_);fill:#FC6BA6;" d="M410,357.67
			c-3.74,46.81-6.91,112.23-8.28,142.33H229.16c5.49-42.76,20.02-152.23,26.17-164c4.61-8.82,21.08-18.48,33.49-24.78
			c8.24-4.18,14.68-6.89,14.68-6.89s36-8.89,50.52-9.64c1.14-0.06,2.14-0.07,2.98-0.02C368.67,295.33,410.61,330.65,410,357.67z"/>
		<path style="clip-path:url(#SVGID_00000022519380219322719670000017284778069750261381_);fill:#EA539B;" d="M354.02,294.69
			C341.667,319.667,305,351.333,291.67,342c-8.492-5.946-5.67-21.87-2.85-30.78c8.24-4.18,14.68-6.89,14.68-6.89
			S339.5,295.44,354.02,294.69z"/>
		<path style="clip-path:url(#SVGID_00000022519380219322719670000017284778069750261381_);fill:#FFAF97;" d="M289,277.833
			c0.833,0,9.333,14.833,12.333,29.5c0,0-8.667,1.333-10.5,11C289,328,290.5,339,298.5,338.833c8-0.167,38.167-21.667,45.667-36.833
			S317,233.5,317,233.5L289,277.833z"/>
		<path style="clip-path:url(#SVGID_00000022519380219322719670000017284778069750261381_);fill:#F7AB48;" d="M298.79,313.17
			c1.33,5.58-2.2,6.83-4.79,6.83c-2.67,0-2,0.67-5.67,3.67c-3.66,3-4.66,0-6.66,0.33c-2,0.33-4.67,5.33-6,7.67
			c-1.34,2.33-4.34,1.33-6.34,3c-2,1.66-6.33,26-6.33,26s-26,27.33-33.67,21.66c-7.66-5.66-2-26,4.34-32c6.33-6,16-19,19-25.33
			c3-6.33,4.66-9,12.66-11.67c8-2.66,10.34-3.66,16-7c5.67-3.33,13-3.66,16,0c2.07,2.53,1.92,4.59,1.63,5.62
			c-0.13,0.46-0.29,0.72-0.29,0.72C298.72,312.84,298.76,313.01,298.79,313.17z"/>
		<path style="clip-path:url(#SVGID_00000022519380219322719670000017284778069750261381_);fill:#824920;" d="M298.67,312.67
			c0.05,0.17,0.09,0.34,0.12,0.5c-0.11-0.03-0.22-0.05-0.33-0.07c-2.05-0.38-4.14-0.36-6.17-0.76c-0.3-0.05-0.31-0.56,0-0.61
			c1.92-0.33,4.36-0.23,6.67,0.22C298.83,312.41,298.67,312.67,298.67,312.67z"/>
		<path style="clip-path:url(#SVGID_00000022519380219322719670000017284778069750261381_);fill:#FFBE5F;" d="M239.48,396.25
			C231.29,438.17,185,500,185,500H36c-5.67-35.33,26.33-86,46-105s22.67-35.33,27.33-58.33C114,313.67,124,314,124,314l1.1-0.09
			c11.84,8.99,20.54,10.9,30.23,12.92c11.17,2.34,35.78,5.31,43.67,2.92c11.17-3.38,18.1-9.87,22.5-13.42
			c5.65-4.56,8.02-8.51,8.84-10.83C241.34,320.01,247.67,354.33,239.48,396.25z"/>
		<path style="clip-path:url(#SVGID_00000022519380219322719670000017284778069750261381_);fill:#A39B74;" d="M230.63,303.39
			c-0.15,0.1-0.3,0.19-0.46,0.28C230.36,303.3,230.54,303.22,230.63,303.39z"/>
		<path style="clip-path:url(#SVGID_00000022519380219322719670000017284778069750261381_);fill:#9D90D1;" d="M230.63,303.39
			c-0.15,0.1-0.3,0.19-0.46,0.28C230.36,303.3,230.54,303.22,230.63,303.39z"/>
		<path style="clip-path:url(#SVGID_00000022519380219322719670000017284778069750261381_);fill:#D357CA;" d="M234.75,318.5
			c-0.25,8-9,57.25-10,64.25s-1.5,14-1.5,14s-36.5-39.5-58.5-46.5c-21.03-6.69-44.79-32.56-45.76-41.38
			c0.17,0.16,0.34,0.31,0.51,0.46c14.83,13,24.67,15.17,35.83,17.5c11.17,2.34,35.78,5.31,43.67,2.92
			c11.17-3.38,18.1-9.87,22.5-13.42c8.41-6.78,9.55-12.22,9.13-12.94c0.71-0.42,1.35-0.88,1.95-1.38c0.64,2.12,1.22,4.93,0.67,6.99
			C233.25,309,235,310.5,234.75,318.5z"/>
		<path style="clip-path:url(#SVGID_00000022519380219322719670000017284778069750261381_);fill:#9F37A5;" d="M219.25,337.75
			c-1.655,2.59-3.806,4.892-6.393,6.684c-1.294,0.895-2.74,1.607-4.294,2.052c-1.557,0.439-3.279,0.497-4.867,0.147
			c-3.205-0.715-5.866-2.403-8.537-3.817c-2.666-1.455-5.395-2.699-8.277-3.58l0.236-0.972c1.525,0.317,3.039,0.738,4.495,1.298
			c1.454,0.562,2.867,1.223,4.241,1.921c2.759,1.355,5.36,3.023,8.164,3.688c2.781,0.735,5.709-0.144,8.289-1.616
			c1.299-0.732,2.521-1.627,3.666-2.618C217.142,339.97,218.225,338.892,219.25,337.75z"/>
		<path style="clip-path:url(#SVGID_00000022519380219322719670000017284778069750261381_);fill:#9F37A5;" d="M219,358.5
			l3.766-12.088c1.236-4.031,2.479-8.058,3.614-12.114c1.115-4.055,2.124-8.143,3.123-12.239c1.073-4.073,1.746-8.27,3.497-12.184
			c-0.444,4.238-1.506,8.306-2.381,12.445c-0.928,4.122-1.938,8.232-3.153,12.29c-1.211,4.053-2.481,8.085-3.899,12.066
			C222.182,350.669,220.661,354.614,219,358.5z"/>
		<path style="clip-path:url(#SVGID_00000022519380219322719670000017284778069750261381_);fill:#FF718C;" d="M223.745,333.495
			c-12.62,4.63-19.12-1.12-21.74-6c-1.48-2.73-3.38-6.49-4.77-9.27c9.44-7.18,10.22-16.85,10.22-16.85s5.92,9.62,18.36,4.27
			C231.165,314.025,235.435,329.225,223.745,333.495z"/>
		<path style="clip-path:url(#SVGID_00000022519380219322719670000017284778069750261381_);fill:#D37D2F;" d="M229.17,303.67
			c-1.557,1.447-3.423,2.542-5.44,3.272c-2.013,0.711-4.168,1.207-6.366,1.106c-2.188-0.063-4.38-0.641-6.322-1.695
			c-0.954-0.55-1.882-1.16-2.697-1.905c-0.833-0.743-1.568-1.512-2.245-2.5l1.584-0.38c-0.859,7.007-4.882,13.162-10.289,17.394
			c-1.339,1.07-2.795,2.01-4.298,2.83l-2.271,1.154c-0.761,0.378-1.561,0.688-2.34,1.034c-0.787,0.332-1.614,0.583-2.423,0.866
			c-0.827,0.237-1.666,0.447-2.506,0.639c-1.704,0.289-3.434,0.502-5.16,0.399c-1.726-0.027-3.42-0.316-5.085-0.643
			c-1.654-0.38-3.275-0.844-4.873-1.349c-3.197-1.008-6.321-2.163-9.511-3.116c-3.182-0.984-6.373-1.84-9.571-2.556
			c-1.599-0.345-3.201-0.633-4.786-0.857c-0.79-0.086-1.584-0.211-2.356-0.216c-0.389-0.012-0.767,0.013-1.147-0.006
			c-0.393-0.006-0.76-0.063-1.238,0.028c0.091-0.531,0.561-0.86,0.959-1.077c0.422-0.236,0.876-0.323,1.315-0.384
			c0.889-0.146,1.762-0.161,2.629-0.118c1.729,0.096,3.398,0.456,5.043,0.849c3.286,0.803,6.425,2.042,9.532,3.227
			c3.11,1.193,6.258,2.278,9.444,3.159c3.183,0.871,6.438,1.474,9.651,1.366c3.211-0.09,6.348-0.829,9.346-2.053
			c2.997-1.235,5.941-2.714,8.452-4.711c2.536-1.98,4.753-4.366,6.416-7.113c0.853-1.36,1.536-2.819,2.126-4.309
			c0.577-1.478,1.035-3.082,1.233-4.575l0.307-2.307l1.277,1.926c1.026,1.548,2.564,2.971,4.242,3.956
			c1.707,0.983,3.64,1.553,5.622,1.665c1.99,0.158,3.993-0.273,5.926-0.855C225.307,305.246,227.194,304.448,229.17,303.67z"/>
		<path style="clip-path:url(#SVGID_00000022519380219322719670000017284778069750261381_);fill:#D37D2F;" d="M230.63,303.39
			c-0.15,0.1-0.3,0.19-0.46,0.28C230.36,303.3,230.54,303.22,230.63,303.39z"/>
		<path style="clip-path:url(#SVGID_00000022519380219322719670000017284778069750261381_);fill:#FFBE5F;" d="M324.67,363.33
			c-0.59,2.36-4.04,4.71-4.83,5.23c-0.11,0.07-0.17,0.11-0.17,0.11s0.07,0.41,0.09,1.04c0.06,1.71-0.26,5.07-3.43,6.29
			c-4.33,1.67-5-1.67-9-1c-4,0.67-7,0.33-11.33-1c-4.33-1.33-9.67,0.67-12.33,2c-2.67,1.33-2-1-11,2.33
			c-9,3.34-31,35.67-48.67,45.34c-17.67,9.66-18.33,5.33-27.67,5.33c-9.33,0-33.66,2-48.33-3.67c-14.67-5.66-23-64.66,17.67-65.66
			c0,0,6.73-2,11.19,8.66c0,0,23.92,10.25,35.47,10.3c1.13,0,2.14-0.09,3-0.3c6.61-1.59,25.36-12.68,39.01-20.18
			c6.33-3.48,11.56-6.19,13.99-6.82c7.67-2,24,1.67,36,1.67s12.67,1.67,16,3.33C323.67,358,325.33,360.67,324.67,363.33z"/>
		<path style="clip-path:url(#SVGID_00000022519380219322719670000017284778069750261381_);fill:#824920;" d="M319.67,368.67
			c0,0,0.07,0.41,0.09,1.04c-1.1-0.54-2.17-1.15-3.32-1.61c-1.65-0.67-3.38-1.05-5.03-1.7c-0.22-0.08-0.2-0.42,0.05-0.42
			c2.58,0.04,5.92,1.07,8.38,2.58C319.73,368.63,319.67,368.67,319.67,368.67z"/>
		<path style="clip-path:url(#SVGID_00000022519380219322719670000017284778069750261381_);fill:#D37D2F;" d="M254.34,358.15
			c-0.91,1.93-1.95,4.63-2.09,7.1c-0.25,4.5-1.25,6.75-5.5,9s-5,2.75-8.75,7.75s-8.75,8.5-16,4.5c-4.1-2.26-8.44-4.52-9.67-7.87
			c1.13,0,2.14-0.09,3-0.3C221.94,376.74,240.69,365.65,254.34,358.15z"/>
		<path style="clip-path:url(#SVGID_00000022519380219322719670000017284778069750261381_);fill:#FFC6A6;" d="M226.5,161.75
			c0,0-12.25,31.75,2.75,53.75c0,0,2,11-2.75,18.75s-2.5,11,1,12.25s5.75,2,6.75,4.25S233.5,257,233.5,257s-2.333,5.833,3.667,8
			c0,0-5.5,8.167,7,9.667c0,0,3.167,13,12,16.5c8.833,3.5,33.333-8,45.167-20.833C313.167,257.5,315,240.5,315,240.5
			s13.333-3.833,15-28.333S327.333,125.667,226.5,161.75z"/>
		<path style="clip-path:url(#SVGID_00000022519380219322719670000017284778069750261381_);fill:#63290F;" d="M316,119.667
			c0,0-16.667-7.667-39.667-0.667S224.667,153.333,223,158.667c-1.667,5.333,15.667,57,70,70.333c0,0-18-11.667-26.667-22.333
			c0,0,12.333,12.333,30,15.667c0,0,10.667,21,6.667,31.333c0,0,9.333-15.333,3-43.667c0,0,4-8.667,13.333-8.333
			c9.333,0.333,14.333,22-2.333,37.333c0,0,25.667,47.667,13.333,85.667c0,0,8-11.333,8.667-39.667c0,0,5,31.333,28.667,42.667
			c0,0-13.333-19.333-13-34.333c0,0,9.667,21,21,33c11.333,12,15,26,15,26s0.333-14.667-4.333-27.667
			c0,0,27.167,15.333,20.792,71.583c0,0,22.875-30.25,14.542-69.583c0,0,3-21.333-10.667-38
			C397.333,272,377.746,235.932,369.667,201C358.333,152,343.667,131.333,316,119.667z"/>
		<path style="clip-path:url(#SVGID_00000022519380219322719670000017284778069750261381_);fill:#FFC6A6;" d="M303.25,415.5
			L284.333,434c0,0-37.667-31.667-59.667-54.333c-22-22.667-30.333-34-30.333-34S193.75,336,181.75,331.75S153,316,148.5,316.5
			s-1.5,9,3.75,13.5c0,0-12.75-7-22.25-14.25s-12.25-9-13-4.25c0,0-1.75,1.5,0.25,4.25c0,0-0.25,2.5,2,5.5s15.5,18.25,28.5,26.25
			s27,10.5,30.25,14s60.25,100.75,84.75,116s69-36.5,69-36.5S315.75,421.333,303.25,415.5z"/>
		<path style="clip-path:url(#SVGID_00000022519380219322719670000017284778069750261381_);fill:#EA539B;" d="M337.5,364
			c0,0-13.5,31.25-37.75,52.5c0,0,22.75,13,33.25,29c0,0,38.75-33.75,43.75-59.5C382.104,358.425,357.25,343,337.5,364z"/>
		<path style="clip-path:url(#SVGID_00000022519380219322719670000017284778069750261381_);fill:#824920;" d="M199.5,247.333
			c0.406-1.804,1.534-3.425,3.011-4.654c1.489-1.231,3.389-1.992,5.321-2.225c1.946-0.253,3.866,0.111,5.634,0.695
			c0.872,0.328,1.698,0.767,2.505,1.19c0.762,0.528,1.516,1.046,2.195,1.661c-0.934-0.108-1.794-0.314-2.646-0.51
			c-0.866-0.141-1.714-0.289-2.54-0.441c-1.673-0.181-3.298-0.375-4.883-0.191c-1.578,0.173-3.105,0.601-4.546,1.358
			C202.094,244.954,200.754,246.012,199.5,247.333z"/>
		<path style="clip-path:url(#SVGID_00000022519380219322719670000017284778069750261381_);fill:#824920;" d="M138.833,262
			c-0.137-1.8,0.536-3.625,1.665-5.11c1.124-1.509,2.778-2.622,4.545-3.241c0.446-0.139,0.897-0.267,1.347-0.386
			c0.453-0.092,0.913-0.132,1.369-0.188l0.683-0.073l0.68,0.017l1.349,0.067c0.886,0.124,1.755,0.335,2.602,0.55
			c0.831,0.31,1.65,0.626,2.426,1.032c-0.89,0.122-1.739,0.153-2.574,0.179l-2.458,0.228c-1.589,0.25-3.137,0.472-4.538,1.033
			c-1.403,0.54-2.685,1.27-3.864,2.242C140.883,259.326,139.822,260.524,138.833,262z"/>
		<path style="clip-path:url(#SVGID_00000022519380219322719670000017284778069750261381_);fill:#EA906C;" d="M251.5,262.333
			c-0.619,1.211-1.805,1.947-2.984,2.473c-1.191,0.549-2.464,0.892-3.75,1.1c-1.291,0.189-2.595,0.204-3.881,0.104
			c-0.643-0.05-1.281-0.141-1.913-0.249c-0.623-0.166-1.237-0.393-1.805-0.761c0.674-0.166,1.301-0.176,1.922-0.151
			c0.621-0.006,1.233,0.076,1.848,0.073c1.228-0.006,2.451-0.042,3.651-0.232c1.2-0.173,2.386-0.445,3.522-0.861
			C249.242,263.379,250.298,262.869,251.5,262.333z"/>
		<path style="clip-path:url(#SVGID_00000022519380219322719670000017284778069750261381_);fill:#EA906C;" d="M236.5,215.167
			c0.396,0.875,0.719,1.767,1.033,2.661c0.305,0.897,0.597,1.796,0.786,2.721l-0.239-0.317l0.001,0.001
			c1.053,0.521,2.319,0.863,3.55,1.049c1.245,0.201,2.519,0.218,3.791,0.136c1.269-0.12,2.534-0.352,3.773-0.714
			c0.629-0.153,1.221-0.415,1.841-0.612c0.604-0.235,1.196-0.505,1.799-0.758c-0.566,0.321-1.126,0.661-1.704,0.969
			c-0.596,0.267-1.178,0.582-1.799,0.8c-1.221,0.501-2.514,0.811-3.824,1.042c-1.318,0.189-4.256,0.522-8.089-0.561
			c0,0-0.477-2.641-0.617-3.578C236.67,217.067,236.549,216.125,236.5,215.167z"/>
		<path style="clip-path:url(#SVGID_00000022519380219322719670000017284778069750261381_);fill:#63290F;" d="M230.5,205.5
			l-0.333-2.5c0,0,13.667,0.5,21.833,8.333C252,211.333,238,206.333,230.5,205.5z"/>
		<path style="clip-path:url(#SVGID_00000022519380219322719670000017284778069750261381_);fill:#EA906C;" d="M149.5,339.833
			c-3.325-1.532-6.201-3.738-9.137-5.843c-2.897-2.162-5.73-4.411-8.496-6.744c-2.766-2.329-5.532-4.682-8.049-7.311
			c-1.266-1.288-2.468-2.639-3.679-3.983c-0.592-0.684-1.173-1.379-1.709-2.115c-0.537-0.731-1.058-1.492-1.431-2.336
			c2.683,2.445,5.114,5.07,7.625,7.659c2.475,2.581,5.129,5.008,7.893,7.307c2.776,2.285,5.636,4.469,8.518,6.624
			C143.883,335.297,146.865,337.303,149.5,339.833z"/>
		<path style="clip-path:url(#SVGID_00000022519380219322719670000017284778069750261381_);fill:#EA906C;" d="M147.167,342.5
			c-3.016-1.543-5.769-3.487-8.457-5.508c-2.678-2.036-5.284-4.17-7.804-6.408c-2.553-2.203-4.966-4.587-7.291-6.999
			c-1.177-1.2-2.317-2.436-3.437-3.692c-1.122-1.246-2.261-2.517-2.928-4.143c1.398,1.021,2.552,2.207,3.694,3.434l3.482,3.618
			c2.325,2.425,4.614,4.838,7.145,7.021c2.524,2.188,5.166,4.243,7.807,6.297C142.016,338.183,144.674,340.212,147.167,342.5z"/>
		<path style="clip-path:url(#SVGID_00000022519380219322719670000017284778069750261381_);fill:#EA906C;" d="M163.417,337.333
			c-1.076-0.365-2.095-0.837-3.089-1.353c-0.994-0.515-1.96-1.08-2.9-1.689c-0.938-0.61-1.86-1.249-2.734-1.958
			c-0.873-0.705-1.728-1.452-2.444-2.333c1.939,1.147,3.828,2.273,5.711,3.456C159.835,334.646,161.692,335.863,163.417,337.333z"/>
		<path style="clip-path:url(#SVGID_00000022519380219322719670000017284778069750261381_);fill:#FFFDD2;" d="M174.956,76.541
			l1.478,7.416c0.934,4.689,4.877,8.181,9.645,8.543l7.54,0.572l-4.199,6.289c-2.655,3.976-2.336,9.234,0.779,12.861l4.927,5.736
			l-7.416,1.478c-4.689,0.934-8.181,4.877-8.543,9.645l-0.572,7.54l-6.289-4.199c-3.976-2.655-9.234-2.336-12.861,0.779
			l-5.736,4.927l-1.478-7.416c-0.934-4.689-4.877-8.181-9.645-8.543l-7.54-0.572l4.199-6.289c2.655-3.976,2.336-9.234-0.779-12.861
			l-4.927-5.736l7.416-1.478c4.689-0.934,8.181-4.877,8.543-9.645l0.572-7.54l6.289,4.199c3.976,2.655,9.234,2.336,12.861-0.779
			L174.956,76.541z"/>
		
			<circle style="clip-path:url(#SVGID_00000022519380219322719670000017284778069750261381_);fill:#FFFB73;" cx="164.333" cy="107.333" r="19"/>
	</g>
	<path style="fill:#EA906C;" d="M323.347,209.593c-2.529-1.771-5.772-1.237-7.805,1.014c-2.589,2.867-2.921,6.924-3.001,10.597
		c-0.005,0.245,0.353,0.236,0.375,0c0.266-2.824,0.404-5.952,1.972-8.416c0.314-0.493,0.686-0.954,1.101-1.371
		c1.532,0.802,2.898,1.536,3.975,3.016c1.379,1.895,1.635,3.971,1.63,6.248c-0.001,0.273,0.418,0.34,0.483,0.065
		c0.907-3.828-1.606-8.67-5.467-9.888c1.823-1.48,4.256-2.099,6.464-0.8C323.378,210.237,323.627,209.789,323.347,209.593z"/>
</g>
</svg>
